<svg xmlns="http://www.w3.org/2000/svg" width="160" height="66" viewBox="0 0 160 66" fill="none">
    <path d="M12 43L15.7098 50.5733L24 51.7857L18.0023 57.6781L19.4151 66L12 62.0733L4.58488 66L6.00228 57.6781L0 51.7857L8.29016 50.5733L12 43Z" fill="#EEBA00"/>
    <path d="M46 43L49.7098 50.5733L58 51.7857L52.0023 57.6781L53.4151 66L46 62.0733L38.5849 66L40.0023 57.6781L34 51.7857L42.2902 50.5733L46 43Z" fill="#EEBA00"/>
    <path d="M80.5 43L84.0553 50.5733L92 51.7857L86.2522 57.6781L87.6062 66L80.5 62.0733L73.3938 66L74.7522 57.6781L69 51.7857L76.9447 50.5733L80.5 43Z" fill="#EEBA00"/>
    <path d="M114 43L117.71 50.5733L126 51.7857L120.002 57.6781L121.415 66L114 62.0733L106.585 66L108.002 57.6781L102 51.7857L110.29 50.5733L114 43Z" fill="#EEBA00"/>
    <path d="M148.5 44.1766L151.603 50.7858L151.716 51.0273L151.98 51.0676L158.963 52.1332L153.894 57.329L153.718 57.5095L153.759 57.7584L154.947 65.0647L148.742 61.6357L148.5 61.502L148.258 61.6357L142.053 65.0644L143.246 57.7587L143.286 57.5095L143.11 57.3288L138.038 52.1331L145.02 51.0676L145.284 51.0273L145.397 50.7858L148.5 44.1766Z" stroke="#EEBA00"/>
    <mask id="mask0_438_1044" style="mask-type:alpha" maskUnits="userSpaceOnUse" x="130" y="43" width="23" height="22">
    <rect x="130" y="43" width="23" height="22" fill="#D9D9D9"/>
    </mask>
    <g mask="url(#mask0_438_1044)">
    <path d="M148.546 43.4668L152.225 50.7238L160.447 51.8856L154.499 57.5319L155.9 65.5063L148.546 61.7435L141.192 65.5063L142.597 57.5319L136.645 51.8856L144.867 50.7238L148.546 43.4668Z" fill="#EEBA00"/>
    </g>
    <g clip-path="url(#clip0_438_1044)">
    <path d="M49.6224 20.0049C49.6224 25.4763 45.3261 29.4943 40.0417 29.4943C34.7572 29.4943 30.5039 25.4763 30.5039 20.0049C30.5039 14.4909 34.8002 10.5156 40.0846 10.5156C45.3691 10.5156 49.6224 14.4909 49.6224 20.0049ZM45.455 20.0049C45.455 16.5854 42.9632 14.2344 40.0846 14.2344C37.2061 14.2344 34.7143 16.5854 34.7143 20.0049C34.7143 23.3818 37.2061 25.7755 40.0846 25.7755C42.9632 25.7755 45.455 23.3818 45.455 20.0049Z" fill="white"/>
    <path d="M70.2875 20.0049C70.2875 25.4763 65.9912 29.4943 60.7067 29.4943C55.4223 29.4943 51.126 25.4763 51.126 20.0049C51.126 14.4909 55.4223 10.5156 60.7067 10.5156C65.9912 10.5156 70.2875 14.4909 70.2875 20.0049ZM66.12 20.0049C66.12 16.5854 63.6282 14.2344 60.7497 14.2344C57.8712 14.2344 55.3793 16.5854 55.3793 20.0049C55.3793 23.3818 57.8712 25.7755 60.7497 25.7755C63.6282 25.7755 66.12 23.3818 66.12 20.0049Z" fill="white"/>
    <path d="M90.0932 11.0713V28.1264C90.0932 35.1365 85.9258 38.0004 81.0281 38.0004C76.3881 38.0004 73.6384 34.9228 72.5644 32.4009L76.2162 30.9048C76.8607 32.4436 78.4503 34.2817 81.0281 34.2817C84.1644 34.2817 86.1407 32.3581 86.1407 28.7248V27.357H86.0118C85.0666 28.5111 83.2621 29.4943 80.9851 29.4943C76.2162 29.4943 71.834 25.348 71.834 20.0477C71.834 14.7046 76.2162 10.5156 80.9851 10.5156C83.2621 10.5156 85.0666 11.5415 86.0118 12.6529H86.1407V11.1141L90.0932 11.0713ZM86.3984 20.0477C86.3984 16.7136 84.1644 14.2772 81.2858 14.2772C78.4073 14.2772 75.9584 16.7136 75.9584 20.0477C75.9584 23.339 78.3644 25.7755 81.2858 25.7755C84.1644 25.7327 86.3984 23.339 86.3984 20.0477Z" fill="white"/>
    <path d="M96.6235 1.06836V28.8951H92.542V1.06836H96.6235Z" fill="white"/>
    <path d="M112.563 23.1251L115.828 25.2623C114.797 26.8011 112.262 29.4513 107.88 29.4513C102.466 29.4513 98.4277 25.2623 98.4277 19.962C98.4277 14.3197 102.509 10.4727 107.407 10.4727C112.348 10.4727 114.797 14.4052 115.57 16.4997L116 17.5683L103.24 22.8259C104.228 24.7494 105.731 25.6898 107.88 25.6898C109.985 25.7325 111.488 24.7066 112.563 23.1251ZM102.552 19.7055L111.059 16.2004C110.586 15.0036 109.168 14.1914 107.536 14.1914C105.431 14.1487 102.466 16.0295 102.552 19.7055Z" fill="white"/>
    <path d="M15.037 17.5253V13.5073H28.6993C28.8282 14.1912 28.9141 15.0461 28.9141 15.9438C28.9141 18.9786 28.0978 22.6974 25.3911 25.3476C22.7704 28.0405 19.4193 29.4938 15.037 29.4938C6.87407 29.4938 0 22.8684 0 14.7469C0 6.62542 6.87407 0 15.037 0C19.5481 0 22.7704 1.75253 25.1763 4.06074L22.3407 6.92463C20.6222 5.30034 18.2593 4.06074 15.037 4.06074C9.06519 4.06074 4.42519 8.84814 4.42519 14.7896C4.42519 20.7312 9.06519 25.4331 15.037 25.4331C18.9037 25.4331 21.0948 23.8943 22.5126 22.4837C23.6726 21.3296 24.403 19.7053 24.7037 17.4826L15.037 17.5253Z" fill="white"/>
    </g>
    <defs>
    <clipPath id="clip0_438_1044">
    <rect width="116" height="38" fill="white"/>
    </clipPath>
    </defs>
    </svg>