<svg width="131" height="39" viewBox="0 0 131 39" fill="none" xmlns="http://www.w3.org/2000/svg">
<path d="M60.0768 2.41532V18.1346H57.3875V5.80049H57.3508L52.5469 18.1373H50.7549L45.8434 5.80049H45.8066V18.1373H43.3325V2.41532H47.2051L51.6496 14.0597H51.7204L56.4168 2.41532H60.0742H60.0768ZM62.2991 3.61651C62.2991 3.17971 62.4434 2.81483 62.7661 2.52452C63.0888 2.23421 63.4482 2.08772 63.8785 2.08772C64.3455 2.08772 64.7391 2.23421 65.025 2.52452C65.311 2.81483 65.4921 3.17971 65.4921 3.61651C65.4921 4.05331 65.3478 4.41819 65.025 4.7085C64.7023 4.99881 64.3429 5.14529 63.8785 5.14529C63.4141 5.14529 63.0547 4.99881 62.7661 4.7085C62.4801 4.3809 62.2991 4.01602 62.2991 3.61651ZM65.2035 6.85519V18.1346H62.5877V6.85519H65.2035ZM73.1243 16.2063C73.5179 16.2063 73.9482 16.1344 74.4152 15.916C74.8822 15.7349 75.3125 15.4792 75.706 15.1889V17.6632C75.2757 17.9189 74.8087 18.1 74.2709 18.2092C73.733 18.3184 73.1584 18.3903 72.5156 18.3903C70.868 18.3903 69.5404 17.8816 68.5355 16.8243C67.4966 15.7696 66.9928 14.4219 66.9928 12.8212C66.9928 11.0021 67.5307 9.51059 68.5696 8.34402C69.6086 7.17746 71.0779 6.59684 73.0141 6.59684C73.5153 6.59684 74.019 6.66875 74.4834 6.77795C74.9845 6.88715 75.3807 7.06826 75.6667 7.21475V9.76095C75.2731 9.47064 74.8428 9.21495 74.4467 9.06847C74.0164 8.92198 73.5861 8.81278 73.1558 8.81278C72.1168 8.81278 71.293 9.14038 70.6476 9.83286C70.0022 10.5253 69.7162 11.4336 69.7162 12.5975C69.7162 13.7614 70.0389 14.6349 70.6476 15.2529C71.2563 15.8708 72.0827 16.1984 73.1217 16.1984L73.1243 16.2063ZM83.1258 6.67142C83.3409 6.67142 83.5193 6.67142 83.7004 6.7087C83.8814 6.74599 84.0231 6.78062 84.1306 6.8179V9.51059C83.9863 9.40139 83.8079 9.29219 83.5219 9.22028C83.236 9.14837 82.9474 9.07379 82.5538 9.07379C81.9084 9.07379 81.3705 9.3641 80.9403 9.9101C80.51 10.4561 80.2581 11.2924 80.2581 12.4563V18.132H77.6423V6.85519H80.2581V8.637H80.2948C80.5467 8.01909 80.9035 7.54501 81.3705 7.18012C81.8717 6.85253 82.4462 6.67142 83.1258 6.67142ZM84.2723 12.6747C84.2723 10.8183 84.8102 9.32681 85.815 8.23483C86.854 7.14284 88.2892 6.59684 90.1179 6.59684C91.839 6.59684 93.2007 7.10555 94.1688 8.16291C95.137 9.21762 95.6381 10.6372 95.6381 12.4217C95.6381 14.2061 95.1002 15.6976 94.0954 16.7896C93.0564 17.8816 91.658 18.4276 89.866 18.4276C88.074 18.4276 86.7832 17.9189 85.7783 16.8988C84.7734 15.8441 84.2723 14.4245 84.2723 12.6774V12.6747ZM86.9957 12.5655C86.9957 13.7294 87.2476 14.6403 87.7854 15.2582C88.3233 15.8761 89.0763 16.2037 90.0444 16.2037C91.0125 16.2037 91.7288 15.9134 92.2299 15.2582C92.731 14.6403 92.9829 13.7294 92.9829 12.4936C92.9829 11.2578 92.731 10.3842 92.2299 9.72899C91.7288 9.11108 90.9758 8.78348 90.0785 8.78348C89.1104 8.78348 88.3941 9.11108 87.8563 9.76627C87.2476 10.4588 86.9957 11.367 86.9957 12.5682V12.5655ZM99.5421 9.83552C99.5421 10.2004 99.6497 10.528 99.9015 10.7464C100.153 10.9648 100.655 11.2205 101.478 11.5481C102.517 11.9849 103.27 12.459 103.664 12.9677C104.094 13.5137 104.309 14.1316 104.309 14.896C104.309 15.9507 103.916 16.787 103.089 17.4422C102.3 18.0974 101.19 18.3877 99.8281 18.3877C99.3611 18.3877 98.8599 18.3158 98.2854 18.2066C97.7108 18.0974 97.2464 17.9509 96.8502 17.7698V15.149C97.3172 15.4766 97.8551 15.7669 98.3929 15.9507C98.9308 16.1344 99.4319 16.241 99.8989 16.241C100.474 16.241 100.938 16.1691 101.19 15.9853C101.476 15.8042 101.62 15.5485 101.62 15.149C101.62 14.7841 101.476 14.4938 101.19 14.2035C100.904 13.9478 100.329 13.6575 99.5421 13.3299C98.574 12.9304 97.8944 12.4563 97.4983 11.9476C97.1021 11.4389 96.8896 10.7837 96.8896 9.98201C96.8896 8.96193 97.2831 8.12563 98.0728 7.47043C98.8626 6.81524 99.9015 6.48764 101.156 6.48764C101.549 6.48764 101.979 6.52493 102.447 6.63413C102.914 6.74333 103.344 6.85253 103.667 6.96173V9.54521C103.307 9.32681 102.914 9.10842 102.447 8.92731C101.979 8.7462 101.515 8.67162 101.085 8.67162C100.584 8.67162 100.188 8.78082 99.9383 8.96193C99.6864 9.21762 99.5447 9.47064 99.5447 9.83552H99.5421ZM105.422 12.6747C105.422 10.8183 105.96 9.32681 106.964 8.23483C108.003 7.14284 109.439 6.59684 111.267 6.59684C112.988 6.59684 114.35 7.10555 115.318 8.16291C116.286 9.21762 116.788 10.6372 116.788 12.4217C116.788 14.2061 116.25 15.6976 115.245 16.7896C114.206 17.8816 112.807 18.4276 111.015 18.4276C109.223 18.4276 107.933 17.9189 106.928 16.8988C105.96 15.8441 105.422 14.4245 105.422 12.6774V12.6747ZM108.145 12.5655C108.145 13.7294 108.397 14.6403 108.935 15.2582C109.473 15.8761 110.226 16.2037 111.194 16.2037C112.162 16.2037 112.878 15.9134 113.379 15.2582C113.88 14.6403 114.132 13.7294 114.132 12.4936C114.132 11.2578 113.88 10.3842 113.379 9.72899C112.878 9.11108 112.125 8.78348 111.228 8.78348C110.26 8.78348 109.544 9.11108 109.006 9.76627C108.431 10.4588 108.145 11.367 108.145 12.5682V12.5655ZM125.495 9.03651H121.589V18.1346H118.936V9.03651H117.073V6.85253H118.936V5.28645C118.936 4.12255 119.33 3.13976 120.083 2.37537C120.836 1.61098 121.804 1.24609 122.987 1.24609C123.31 1.24609 123.596 1.28338 123.848 1.28338C124.1 1.28338 124.315 1.35529 124.493 1.42987V3.72304C124.422 3.68576 124.241 3.61385 124.026 3.54193C123.811 3.47002 123.559 3.43274 123.273 3.43274C122.735 3.43274 122.305 3.61385 122.019 3.94144C121.733 4.26904 121.589 4.81503 121.589 5.47023V6.8179H125.495V4.2717L128.111 3.47002V6.8179H130.764V9.00188H128.111V14.2781C128.111 14.9705 128.256 15.442 128.471 15.7349C128.723 16.0252 129.116 16.1717 129.654 16.1717C129.798 16.1717 129.977 16.1344 130.192 16.0625C130.407 15.9906 130.585 15.916 130.73 15.8068V17.9908C130.551 18.1 130.299 18.1719 129.906 18.2465C129.512 18.3184 129.153 18.3557 128.759 18.3557C127.647 18.3557 126.823 18.0654 126.285 17.4821C125.747 16.8988 125.461 15.9906 125.461 14.7894L125.498 9.03917L125.495 9.03651Z" fill="white"/>
<path d="M18.1164 0.25293H0.233398V18.4066H18.1164V0.25293Z" fill="#F25022"/>
<path d="M37.8805 0.25293H19.9976V18.4066H37.8805V0.25293Z" fill="#7FBA00"/>
<path d="M18.1164 20.3164H0.233398V38.4701H18.1164V20.3164Z" fill="#00A4EF"/>
<path d="M37.8805 20.3164H19.9976V38.4701H37.8805V20.3164Z" fill="#FFB900"/>
<path d="M45.8749 32.8314V38.4857H43.3352V22.8916H47.9948C49.758 22.8916 51.1275 23.3098 52.0983 24.1434C53.069 24.977 53.5544 26.1516 53.5544 27.6671C53.5544 29.1825 53.048 30.421 52.0327 31.3851C51.0173 32.3493 49.6478 32.8314 47.9188 32.8314H45.8723H45.8749ZM45.8749 25.0223V30.722H47.5252C48.6167 30.722 49.451 30.4636 50.0203 29.9496C50.5897 29.4355 50.8783 28.7111 50.8783 27.7736C50.8783 25.9385 49.8288 25.0223 47.7299 25.0223H45.8775H45.8749Z" fill="white"/>
<path d="M62.9392 38.4862H60.528V37.0134H60.4861C59.7278 38.3477 58.618 38.7472 57.154 38.7472C56.0757 38.7472 55.2308 38.4489 54.6195 37.855C54.0082 37.2611 53.7039 36.4727 53.7039 35.4952C53.7039 33.3938 54.8976 32.1687 57.2825 31.8198L60.5385 31.351C60.5385 29.7636 59.796 28.9699 58.311 28.9699C57.0044 28.9699 55.8264 29.4254 54.7769 30.3389V28.131C55.934 27.4358 57.2694 27.0869 58.7833 27.0869C61.5539 27.0869 62.9392 28.4719 62.9392 31.2418V38.4836V38.4862ZM60.5385 33.0156L58.2349 33.3406C57.5213 33.4338 56.9834 33.6096 56.6214 33.8679C56.2593 34.1263 56.0809 34.5764 56.0809 35.2209C56.0809 35.6923 56.2462 36.0785 56.5794 36.3795C56.9126 36.6804 57.356 36.8296 57.9122 36.8296C58.6705 36.8296 59.2949 36.5606 59.7934 36.0199C60.2919 35.4793 60.5385 34.8001 60.5385 33.9798V33.013V33.0156Z" fill="white"/>
<path d="M71.3981 29.7531C71.099 29.5133 70.666 29.3935 70.102 29.3935C69.3673 29.3935 68.7534 29.7317 68.2601 30.4056C67.7669 31.0794 67.5203 31.9956 67.5203 33.1569V38.4863H65.0356V27.3507H67.5203V29.6465H67.5622C67.8062 28.8635 68.1788 28.2536 68.6825 27.8141C69.1863 27.3746 69.7478 27.1562 70.3696 27.1562C70.8182 27.1562 71.1619 27.2255 71.3981 27.364V29.7557V29.7531Z" fill="white"/>
<path d="M78.5292 38.3661C78.0438 38.6137 77.4036 38.7363 76.6112 38.7363C74.4834 38.7363 73.4182 37.7002 73.4182 35.6254V29.3292H71.5869V27.3503H73.4182V24.7721L75.9029 24.0557V27.3503H78.5265V29.3292H75.9029V34.8983C75.9029 35.5588 76.0209 36.0303 76.257 36.3126C76.4932 36.5949 76.8867 36.7361 77.4351 36.7361C77.8575 36.7361 78.2196 36.6135 78.5265 36.3658V38.3661H78.5292Z" fill="white"/>
<path d="M90.0235 38.4858H87.5389V32.2108C87.5389 30.1307 86.8147 29.0893 85.3638 29.0893C84.6056 29.0893 83.9812 29.377 83.4879 29.9549C82.9947 30.5302 82.748 31.2573 82.748 32.1363V38.4884H80.2529V27.3528H82.748V29.2012H82.79C83.6112 27.7949 84.7971 27.0918 86.3477 27.0918C87.5415 27.0918 88.4519 27.486 89.079 28.2717C89.706 29.0574 90.0209 30.1946 90.0209 31.6808V38.4884L90.0235 38.4858Z" fill="white"/>
<path d="M101.615 33.6042H94.1374C94.1662 34.635 94.4785 35.4286 95.074 35.9853C95.6696 36.5419 96.4908 36.8216 97.5324 36.8216C98.7026 36.8216 99.7783 36.4674 100.757 35.7562V37.7911C99.7573 38.4303 98.435 38.7472 96.7925 38.7472C95.1501 38.7472 93.9117 38.2412 92.9961 37.2291C92.0778 36.217 91.6187 34.7948 91.6187 32.9597C91.6187 31.2258 92.125 29.8142 93.1351 28.7249C94.1452 27.6356 95.402 27.0869 96.9001 27.0869C98.3982 27.0869 99.5605 27.577 100.382 28.5544C101.203 29.5319 101.615 30.8929 101.615 32.6321V33.5989V33.6042ZM99.2142 31.8198C99.2063 30.9142 98.9964 30.2084 98.5819 29.705C98.1673 29.2016 97.5954 28.9486 96.8686 28.9486C96.1419 28.9486 95.5489 29.2123 95.053 29.7423C94.5572 30.2723 94.2502 30.9648 94.1374 31.8198H99.2142Z" fill="white"/>
<path d="M109.929 29.7531C109.63 29.5133 109.197 29.3935 108.633 29.3935C107.899 29.3935 107.285 29.7317 106.791 30.4056C106.298 31.0794 106.052 31.9956 106.052 33.1569V38.4863H103.567V27.3507H106.052V29.6465H106.093C106.337 28.8635 106.71 28.2536 107.214 27.8141C107.718 27.3746 108.279 27.1562 108.901 27.1562C109.349 27.1562 109.693 27.2255 109.929 27.364V29.7557V29.7531Z" fill="white"/>
</svg>
