<svg width="665" height="641" viewBox="0 0 665 641" fill="none" xmlns="http://www.w3.org/2000/svg">
<path d="M342.624 359.481C348.536 359.286 354.456 359.286 360.367 359.481C364.987 359.52 369.157 362.419 371.711 366.214C373.816 369.483 373.921 373.638 373.376 377.393C372.897 381.227 370.047 384.194 367.091 386.335C361.745 389.701 355.298 388.154 349.377 388.534C348.822 394.868 349.339 401.251 349.148 407.604C346.957 407.799 344.767 407.799 342.586 407.604C342.586 391.56 342.5 375.515 342.624 359.471M349.425 366.165C348.918 371.351 349.052 376.605 349.32 381.801C353.433 381.83 357.584 382.132 361.668 381.616C367.244 379.68 368.65 371.526 364.165 367.741C359.803 364.891 354.284 366.535 349.425 366.155M441.554 372.412C441.65 369.425 441.277 366.379 441.946 363.451C444.07 363.402 446.203 363.412 448.336 363.558C448.527 366.486 448.336 369.415 448.536 372.344C450.746 373.55 453.654 372.626 456.15 373.005C456.265 375.058 456.265 377.121 456.188 379.193C453.615 379.31 451.033 379.368 448.479 379.719C448.441 385.955 448.412 392.202 448.498 398.448C448.422 400.064 449.168 402 450.88 402.389C452.774 402.574 454.687 402.204 456.59 402.136C456.82 404.247 456.59 406.378 456.064 408.431C452.994 408.616 449.799 409.044 446.815 408.168C444.424 406.68 441.946 404.529 441.831 401.455C441.162 394.255 442.023 387.006 441.391 379.806C439.431 379.485 437.479 379.203 435.528 378.911C435.509 376.975 435.557 375.048 435.672 373.122C437.632 372.918 439.689 373.122 441.573 372.421M379.114 379.232C384.413 369.23 401.142 369.172 406.48 379.232C407.981 382.55 407.666 386.306 407.704 389.867C407.599 395.802 407.847 401.747 407.589 407.682C405.867 407.789 404.155 407.779 402.443 407.633C401.888 406.816 401.353 406.018 400.798 405.22C396.905 407.711 392.324 410.406 387.579 408.762C380.712 407.701 375.432 399.713 378.454 393C380.339 387.804 385.925 385.537 390.956 385.158C394.524 384.885 397.948 386.121 401.477 386.345C401.133 382.132 398.043 378.084 393.567 378.357C389.636 377.685 386.355 380.108 383.773 382.803C382.022 381.898 380.511 380.614 379.114 379.242M384.633 397.651C384.911 401.173 388.67 403.099 391.826 402.905C396.743 402.671 400.894 398.302 401.142 393.331C398.436 390.859 394.495 390.733 391.061 391.025C387.742 391.19 384.213 393.992 384.633 397.651ZM468.498 375.73C471.607 373.832 474.754 371.419 478.608 371.847C485.17 371.215 491.119 377.169 491.167 383.747C491.253 391.686 491.196 399.626 491.196 407.565C489.015 407.799 486.806 407.828 484.615 407.614C484.338 399.733 485.026 391.803 484.261 383.951C483.879 378.901 477.757 377.335 473.769 378.892C470.277 380.429 468.278 384.321 468.278 388.086C468.135 394.576 468.355 401.075 468.25 407.575C465.983 407.818 463.716 407.808 461.459 407.604C461.325 396.084 461.315 384.574 461.459 373.064C463.525 372.869 465.61 372.82 467.666 373.171C467.867 373.813 468.288 375.097 468.498 375.739M503.123 375.078C509.57 369.999 519.737 370.904 525.161 377.14C528.432 381.227 530.029 386.656 529.264 391.91C520.617 392.192 511.971 391.871 503.324 392.037C502.549 398.448 509.082 403.712 515.089 402.613C518.647 402.535 520.77 399.363 523.162 397.174C525.218 396.921 526.94 398.507 528.728 399.314C525.256 408.11 513.865 411.661 505.811 407.361C493.864 401.854 492.937 382.813 503.123 375.087M503.267 386.15C509.532 386.403 515.797 386.403 522.062 386.15C521.717 381.538 517.155 377.812 512.631 378.357C508.04 378.084 504.673 382.102 503.276 386.14M547.055 372.334C549.475 371.507 552.086 371.925 554.544 372.373C554.755 374.698 554.793 377.043 554.745 379.388C552.249 379.261 549.695 378.571 547.227 379.222C543.64 380.468 541.354 384.321 541.402 388.096C541.258 394.556 541.478 401.036 541.364 407.507C539.125 407.818 536.859 407.838 534.63 407.594C534.496 396.084 534.496 384.564 534.63 373.064C536.38 372.918 538.15 372.859 539.919 372.918C540.484 373.793 541.077 374.65 541.698 375.496C543.487 374.435 545.17 373.18 547.055 372.324M419.918 376.469C422.367 375.068 424.643 372.898 427.599 372.869C429.158 372.762 430.717 372.869 432.267 372.947C432.381 375.058 432.391 377.189 432.333 379.32C429.349 379.797 425.839 379.067 423.409 381.314C421.803 382.91 420.263 384.934 420.224 387.327C419.966 394.342 420.368 401.367 420.081 408.392C417.929 408.577 415.758 408.596 413.615 408.47C413.433 396.931 413.472 385.372 413.596 373.822C415.461 373.686 417.345 373.647 419.21 373.968C419.392 374.601 419.737 375.856 419.918 376.479" fill="white"/>
<path d="M342.624 359.481C348.536 359.286 354.456 359.286 360.367 359.481C364.987 359.52 369.157 362.419 371.711 366.214C373.816 369.483 373.921 373.638 373.376 377.393C372.897 381.227 370.047 384.194 367.091 386.335C361.745 389.701 355.298 388.154 349.377 388.534C348.822 394.868 349.339 401.251 349.148 407.604C346.957 407.799 344.767 407.799 342.586 407.604C342.586 391.56 342.5 375.515 342.624 359.471M349.425 366.165C348.918 371.351 349.052 376.605 349.32 381.801C353.433 381.83 357.584 382.132 361.668 381.616C367.244 379.68 368.65 371.526 364.165 367.741C359.803 364.891 354.284 366.535 349.425 366.155M441.554 372.412C441.65 369.425 441.277 366.379 441.946 363.451C444.07 363.402 446.203 363.412 448.336 363.558C448.527 366.486 448.336 369.415 448.536 372.344C450.746 373.55 453.654 372.626 456.15 373.005C456.265 375.058 456.265 377.121 456.188 379.193C453.615 379.31 451.033 379.368 448.479 379.719C448.441 385.955 448.412 392.202 448.498 398.448C448.422 400.064 449.168 402 450.88 402.389C452.774 402.574 454.687 402.204 456.59 402.136C456.82 404.247 456.59 406.378 456.064 408.431C452.994 408.616 449.799 409.044 446.815 408.168C444.424 406.68 441.946 404.529 441.831 401.455C441.162 394.255 442.023 387.006 441.391 379.806C439.431 379.485 437.479 379.203 435.528 378.911C435.509 376.975 435.557 375.048 435.672 373.122C437.632 372.918 439.689 373.122 441.573 372.421M379.114 379.232C384.413 369.23 401.142 369.172 406.48 379.232C407.981 382.55 407.666 386.306 407.704 389.867C407.599 395.802 407.847 401.747 407.589 407.682C405.867 407.789 404.155 407.779 402.443 407.633C401.888 406.816 401.353 406.018 400.798 405.22C396.905 407.711 392.324 410.406 387.579 408.762C380.712 407.701 375.432 399.713 378.454 393C380.339 387.804 385.925 385.537 390.956 385.158C394.524 384.885 397.948 386.121 401.477 386.345C401.133 382.132 398.043 378.084 393.567 378.357C389.636 377.685 386.355 380.108 383.773 382.803C382.022 381.898 380.511 380.614 379.114 379.242M384.633 397.651C384.911 401.173 388.67 403.099 391.826 402.905C396.743 402.671 400.894 398.302 401.142 393.331C398.436 390.859 394.495 390.733 391.061 391.025C387.742 391.19 384.213 393.992 384.633 397.651ZM468.498 375.73C471.607 373.832 474.754 371.419 478.608 371.847C485.17 371.215 491.119 377.169 491.167 383.747C491.253 391.686 491.196 399.626 491.196 407.565C489.015 407.799 486.806 407.828 484.615 407.614C484.338 399.733 485.026 391.803 484.261 383.951C483.879 378.901 477.757 377.335 473.769 378.892C470.277 380.429 468.278 384.321 468.278 388.086C468.135 394.576 468.355 401.075 468.25 407.575C465.983 407.818 463.716 407.808 461.459 407.604C461.325 396.084 461.315 384.574 461.459 373.064C463.525 372.869 465.61 372.82 467.666 373.171C467.867 373.813 468.288 375.097 468.498 375.739M503.123 375.078C509.57 369.999 519.737 370.904 525.161 377.14C528.432 381.227 530.029 386.656 529.264 391.91C520.617 392.192 511.971 391.871 503.324 392.037C502.549 398.448 509.082 403.712 515.089 402.613C518.647 402.535 520.77 399.363 523.162 397.174C525.218 396.921 526.94 398.507 528.728 399.314C525.256 408.11 513.865 411.661 505.811 407.361C493.864 401.854 492.937 382.813 503.123 375.087M503.267 386.15C509.532 386.403 515.797 386.403 522.062 386.15C521.717 381.538 517.155 377.812 512.631 378.357C508.04 378.084 504.673 382.102 503.276 386.14M547.055 372.334C549.475 371.507 552.086 371.925 554.544 372.373C554.755 374.698 554.793 377.043 554.745 379.388C552.249 379.261 549.695 378.571 547.227 379.222C543.64 380.468 541.354 384.321 541.402 388.096C541.258 394.556 541.478 401.036 541.364 407.507C539.125 407.818 536.859 407.838 534.63 407.594C534.496 396.084 534.496 384.564 534.63 373.064C536.38 372.918 538.15 372.859 539.919 372.918C540.484 373.793 541.077 374.65 541.698 375.496C543.487 374.435 545.17 373.18 547.055 372.324M419.918 376.469C422.367 375.068 424.643 372.898 427.599 372.869C429.158 372.762 430.717 372.869 432.267 372.947C432.381 375.058 432.391 377.189 432.333 379.32C429.349 379.797 425.839 379.067 423.409 381.314C421.803 382.91 420.263 384.934 420.224 387.327C419.966 394.342 420.368 401.367 420.081 408.392C417.929 408.577 415.758 408.596 413.615 408.47C413.433 396.931 413.472 385.372 413.596 373.822C415.461 373.686 417.345 373.647 419.21 373.968C419.392 374.601 419.737 375.856 419.918 376.479V376.469Z" fill="white"/>
<path d="M115.551 363.973C122.509 358.605 132.433 358.24 140.533 361.125C143.432 362.465 146.733 364.067 148.106 367.092C146.733 368.563 145.294 369.978 143.729 371.252C141.378 369.397 139.036 367.402 136.118 366.465C128.939 364.394 120.407 366.521 115.992 372.676C112.249 376.938 112.095 382.915 112.873 388.199C114.485 396.462 123.171 402.532 131.703 401.792C139.401 401.858 147.002 395.581 146.983 387.834C141.426 387.431 135.859 387.871 130.293 387.618C129.429 385.922 129.496 383.983 129.861 382.175C137.664 381.407 145.572 381.932 153.423 381.904C154.248 388.705 153.183 396.368 147.904 401.314C139.295 410.27 123.661 410.383 114.274 402.542C108.333 397.595 104.888 389.867 105.444 382.241C105.838 375.074 109.715 368.273 115.56 363.973M276.378 360.638C278.595 360.244 280.86 360.254 283.116 360.376C283.413 375.739 283.173 391.112 283.231 406.486C281.052 407.282 278.691 406.851 276.436 406.776C276.263 391.393 276.378 376.02 276.378 360.638ZM171.294 372.788C176.198 371.758 181.63 372.311 185.786 375.252C193.887 380.358 196.046 392.031 190.988 399.89C187.994 405.427 181.4 408.294 175.2 408.341C171.015 407.844 166.677 406.504 163.664 403.516C158.586 398.813 156.984 391.178 158.98 384.733C160.343 378.84 165.487 374.409 171.303 372.788M172.119 379.159C168.107 380.461 165.42 384.424 165.209 388.471C164.796 392.536 165.612 397.174 169.182 399.759C174.615 404.462 184.395 401.492 186.17 394.607C187.053 390.26 187.168 384.864 183.435 381.697C180.738 378.522 175.968 377.969 172.129 379.159M209.799 372.882C214.291 371.898 219.32 372.03 223.332 374.428C232.786 379.168 235.358 392.527 229.283 400.762C226.154 405.614 220.232 408.209 214.502 408.35C209.07 407.947 203.35 405.661 200.336 401.015C197.284 397.108 196.785 391.927 197.303 387.187C197.946 380.498 203.359 374.84 209.799 372.873M211.345 379.056C202.352 381.754 201.21 395.281 208.686 400.246C212.372 402.71 217.977 402.72 221.355 399.694C226.864 395.506 227.094 386.738 222.584 381.772C219.877 378.69 215.203 377.969 211.354 379.046M236.625 384.611C238.41 377.622 245.292 371.599 252.95 372.339C256.684 372.076 259.698 374.465 262.73 376.189C263.028 375.262 263.335 374.334 263.633 373.425C265.629 373.304 267.625 373.294 269.622 373.407C269.842 384.114 269.65 394.832 269.718 405.549C269.852 410.814 267.596 416.481 262.894 419.367C258.757 421.962 253.574 422.009 248.843 421.484C243.689 420.828 239.053 417.053 237.517 412.191C239.12 411.01 240.973 409.483 243.132 409.886C244.975 411.713 246.52 413.952 248.939 415.132C253.306 417.212 258.959 415.47 261.704 411.647C263.268 409.418 263.143 406.617 263.182 404.031C259.592 406.261 255.647 408.753 251.194 408.247C246.76 407.554 242.057 405.755 239.543 401.914C235.828 397.024 235.08 390.41 236.634 384.611M249.015 379.252C241.558 382.653 240.598 393.492 245.829 399.15C248.766 402.27 253.929 402.851 257.682 400.874C265.043 396.462 265.207 384.395 257.97 379.805C255.263 378.344 251.876 378.184 249.006 379.252M293.74 377.041C296.86 373.875 301.342 371.955 305.881 372.329C311.563 372.067 316.871 375.561 319.731 380.199C321.689 383.543 321.814 387.534 321.737 391.3C313.185 392.321 304.471 391.328 295.861 391.768C295.113 398.11 302.062 403.319 308.233 401.811C311.746 401.464 313.723 398.41 315.834 396.049C317.639 396.78 319.395 397.605 321.151 398.429C319.971 403.319 314.922 406.542 310.162 407.732C305.094 409.249 299.653 407.6 295.362 404.865C290.736 401.586 288.99 395.797 288.433 390.504C288.807 385.707 290.065 380.489 293.769 377.051M301.217 379.384C298.251 380.405 296.917 383.487 296.015 386.185C302.244 386.25 308.482 386.288 314.721 386.147C314.049 384.171 313.531 381.96 311.794 380.583C308.905 378.213 304.605 378.072 301.217 379.393" fill="white"/>
<path d="M115.551 363.973C122.509 358.605 132.433 358.24 140.533 361.125C143.432 362.465 146.733 364.067 148.106 367.092C146.733 368.563 145.294 369.978 143.729 371.252C141.378 369.397 139.036 367.402 136.118 366.465C128.939 364.394 120.407 366.521 115.992 372.676C112.249 376.938 112.095 382.915 112.873 388.199C114.485 396.462 123.171 402.532 131.703 401.792C139.401 401.858 147.002 395.581 146.983 387.834C141.426 387.431 135.859 387.871 130.293 387.618C129.429 385.922 129.496 383.983 129.861 382.175C137.664 381.407 145.572 381.932 153.423 381.904C154.248 388.705 153.183 396.368 147.904 401.314C139.295 410.27 123.661 410.383 114.274 402.542C108.333 397.595 104.888 389.867 105.444 382.241C105.838 375.074 109.715 368.273 115.56 363.973M276.378 360.638C278.595 360.244 280.86 360.254 283.116 360.376C283.413 375.739 283.173 391.112 283.231 406.486C281.052 407.282 278.691 406.851 276.436 406.776C276.263 391.393 276.378 376.02 276.378 360.638ZM171.294 372.788C176.198 371.758 181.63 372.311 185.786 375.252C193.887 380.358 196.046 392.031 190.988 399.89C187.994 405.427 181.4 408.294 175.2 408.341C171.015 407.844 166.677 406.504 163.664 403.516C158.586 398.813 156.984 391.178 158.98 384.733C160.343 378.84 165.487 374.409 171.303 372.788M172.119 379.159C168.107 380.461 165.42 384.424 165.209 388.471C164.796 392.536 165.612 397.174 169.182 399.759C174.615 404.462 184.395 401.492 186.17 394.607C187.053 390.26 187.168 384.864 183.435 381.697C180.738 378.522 175.968 377.969 172.129 379.159M209.799 372.882C214.291 371.898 219.32 372.03 223.332 374.428C232.786 379.168 235.358 392.527 229.283 400.762C226.154 405.614 220.232 408.209 214.502 408.35C209.07 407.947 203.35 405.661 200.336 401.015C197.284 397.108 196.785 391.927 197.303 387.187C197.946 380.498 203.359 374.84 209.799 372.873M211.345 379.056C202.352 381.754 201.21 395.281 208.686 400.246C212.372 402.71 217.977 402.72 221.355 399.694C226.864 395.506 227.094 386.738 222.584 381.772C219.877 378.69 215.203 377.969 211.354 379.046M236.625 384.611C238.41 377.622 245.292 371.599 252.95 372.339C256.684 372.076 259.698 374.465 262.73 376.189C263.028 375.262 263.335 374.334 263.633 373.425C265.629 373.304 267.625 373.294 269.622 373.407C269.842 384.114 269.65 394.832 269.718 405.549C269.852 410.814 267.596 416.481 262.894 419.367C258.757 421.962 253.574 422.009 248.843 421.484C243.689 420.828 239.053 417.053 237.517 412.191C239.12 411.01 240.973 409.483 243.132 409.886C244.975 411.713 246.52 413.952 248.939 415.132C253.306 417.212 258.959 415.47 261.704 411.647C263.268 409.418 263.143 406.617 263.182 404.031C259.592 406.261 255.647 408.753 251.194 408.247C246.76 407.554 242.057 405.755 239.543 401.914C235.828 397.024 235.08 390.41 236.634 384.611M249.015 379.252C241.558 382.653 240.598 393.492 245.829 399.15C248.766 402.27 253.929 402.851 257.682 400.874C265.043 396.462 265.207 384.395 257.97 379.805C255.263 378.344 251.876 378.184 249.006 379.252M293.74 377.041C296.86 373.875 301.342 371.955 305.881 372.329C311.563 372.067 316.871 375.561 319.731 380.199C321.689 383.543 321.814 387.534 321.737 391.3C313.185 392.321 304.471 391.328 295.861 391.768C295.113 398.11 302.062 403.319 308.233 401.811C311.746 401.464 313.723 398.41 315.834 396.049C317.639 396.78 319.395 397.605 321.151 398.429C319.971 403.319 314.922 406.542 310.162 407.732C305.094 409.249 299.653 407.6 295.362 404.865C290.736 401.586 288.99 395.797 288.433 390.504C288.807 385.707 290.065 380.489 293.769 377.051M301.217 379.384C298.251 380.405 296.917 383.487 296.015 386.185C302.244 386.25 308.482 386.288 314.721 386.147C314.049 384.171 313.531 381.96 311.794 380.583C308.905 378.213 304.605 378.072 301.217 379.393" fill="white"/>
<rect x="1.5" y="1.5" width="662" height="638" rx="14.5" stroke="white" stroke-width="3"/>
<path d="M260.156 130.213C279.996 109.783 308.886 99.0027 337.206 100.073C353.806 101.183 370.406 105.503 384.596 114.363C390.476 118.043 396.356 121.983 401.026 127.163C396.556 132.403 391.316 136.923 386.576 141.913C381.526 146.773 376.816 151.993 371.616 156.673C363.476 149.283 353.396 143.693 342.396 142.223C330.986 140.893 318.936 141.443 308.466 146.603C296.836 151.853 287.026 160.913 280.586 171.893C278.366 175.603 276.916 179.703 275.076 183.603C263.466 175.053 252.336 165.903 240.836 157.213C245.356 147.043 252.236 137.973 260.146 130.203" fill="#EA4335"/>
<path d="M240.846 157.223C252.346 165.913 263.476 175.063 275.086 183.613C273.356 191.933 270.766 200.453 272.356 209.023C272.836 213.733 274.246 218.283 275.096 222.933C266.056 230.073 256.856 237.033 247.886 244.273C245.626 246.083 243.156 247.623 240.606 249.003C234.456 236.573 230.536 222.873 230.136 208.953C229.766 199.833 230.076 190.593 232.026 181.663C234.126 173.263 236.476 164.753 240.856 157.233" fill="#FBBC04"/>
<path d="M333.446 184.383C361.656 184.383 389.866 184.383 418.076 184.383C421.676 184.403 425.306 184.113 428.886 184.703C435.116 215.363 428.336 249.343 407.956 273.533C405.736 276.183 403.596 279.053 400.526 280.783C389.256 272.503 378.486 263.583 367.336 255.143C377.096 247.803 384.616 236.793 385.936 224.483C368.336 224.163 350.726 224.603 333.136 224.273C332.646 213.863 333.096 203.423 332.926 192.983C333.026 190.123 332.546 187.153 333.446 184.383Z" fill="#4284F4"/>
<path d="M247.885 244.273C256.855 237.023 266.055 230.073 275.095 222.933C277.325 227.073 278.725 231.623 281.325 235.563C289.425 248.873 302.695 258.963 317.755 263.033C328.285 265.483 339.345 265.163 349.875 262.833C356.095 261.243 361.775 258.223 367.355 255.143C378.505 263.583 389.275 272.503 400.545 280.783C397.835 284.243 394.135 286.693 390.585 289.203C373.795 301.083 353.005 305.813 332.705 306.323C312.225 305.903 291.685 300.083 274.785 288.323C260.265 278.453 248.385 264.743 240.605 249.003C243.155 247.623 245.625 246.083 247.885 244.273Z" fill="#34A853"/>
<path fill-rule="evenodd" clip-rule="evenodd" d="M665 519H0V625C0 633.837 7.16357 641 16 641H649C657.837 641 665 633.837 665 625V519ZM447.726 584.855C448.227 582.348 448.478 579.511 448.478 576.342C448.478 572.099 447.994 568.473 447.027 565.465C446.079 562.44 444.61 560.13 442.623 558.537C440.654 556.925 438.147 556.12 435.104 556.12C431.881 556.12 429.294 556.925 427.342 558.537C425.391 560.148 423.977 562.466 423.099 565.492C422.24 568.5 421.81 572.117 421.81 576.342C421.81 580.567 422.285 584.193 423.233 587.218C424.182 590.226 425.642 592.536 427.611 594.147C429.58 595.74 432.078 596.537 435.104 596.537C437.521 596.537 439.58 596.081 441.28 595.167C442.981 594.254 444.36 592.93 445.416 591.193C446.472 589.456 447.242 587.344 447.726 584.855ZM428.819 584.64C428.39 582.42 428.175 579.654 428.175 576.342C428.175 573.048 428.39 570.29 428.819 568.07C429.267 565.85 429.992 564.185 430.995 563.075C432.015 561.947 433.385 561.383 435.104 561.383C436.822 561.383 438.192 561.947 439.212 563.075C440.233 564.185 440.967 565.85 441.415 568.07C441.862 570.29 442.086 573.048 442.086 576.342C442.086 579.672 441.853 582.447 441.388 584.667C440.94 586.887 440.206 588.543 439.186 589.635C438.165 590.727 436.804 591.273 435.104 591.273C433.403 591.273 432.042 590.727 431.021 589.635C430.001 588.525 429.267 586.86 428.819 584.64ZM418.653 596H392.066V591.247L402.244 580.934C404.214 578.929 405.834 577.201 407.105 575.751C408.376 574.283 409.316 572.895 409.925 571.588C410.552 570.281 410.865 568.858 410.865 567.318C410.865 565.421 410.319 563.988 409.227 563.021C408.135 562.037 406.693 561.544 404.903 561.544C403.202 561.544 401.627 561.885 400.177 562.565C398.744 563.227 397.258 564.176 395.719 565.412L392.254 561.249C393.346 560.318 394.51 559.468 395.745 558.698C396.999 557.928 398.395 557.319 399.935 556.872C401.474 556.406 403.229 556.173 405.198 556.173C407.687 556.173 409.835 556.621 411.644 557.516C413.452 558.393 414.84 559.62 415.806 561.195C416.791 562.771 417.283 564.606 417.283 566.701C417.283 568.813 416.863 570.765 416.021 572.555C415.18 574.346 413.98 576.118 412.423 577.873C410.865 579.609 409.012 581.498 406.864 583.539L400.069 590.172V590.468H418.653V596ZM172.026 556.737C177.093 556.737 180.79 557.776 183.118 559.853C185.445 561.929 186.609 564.839 186.609 568.581C186.609 570.281 186.34 571.902 185.803 573.441C185.284 574.963 184.425 576.315 183.225 577.497C182.025 578.66 180.441 579.582 178.472 580.263C176.52 580.943 174.112 581.283 171.248 581.283H167.058V596H160.613V556.737H172.026ZM171.597 562.082H167.058V575.912H170.576C172.599 575.912 174.318 575.679 175.732 575.214C177.147 574.73 178.221 573.97 178.955 572.931C179.689 571.893 180.056 570.523 180.056 568.822C180.056 566.549 179.367 564.857 177.988 563.747C176.627 562.637 174.497 562.082 171.597 562.082ZM203.838 556.737C207.222 556.737 210.015 557.149 212.217 557.973C214.437 558.796 216.084 560.049 217.159 561.732C218.25 563.415 218.797 565.555 218.797 568.151C218.797 570.084 218.438 571.732 217.723 573.092C217.006 574.453 216.066 575.581 214.903 576.476C213.739 577.371 212.495 578.087 211.17 578.625L222.315 596H215.037L205.557 580.263H199.246V596H192.801V556.737H203.838ZM203.409 562.108H199.246V574.945H203.704C206.694 574.945 208.86 574.39 210.203 573.28C211.563 572.17 212.244 570.532 212.244 568.366C212.244 566.092 211.519 564.481 210.069 563.532C208.636 562.583 206.417 562.108 203.409 562.108ZM226.278 596H248.514V590.548H232.723V578.222H247.521V572.824H232.723V562.162H248.514V556.737H226.278V596ZM272.296 596L260.99 563.209H260.748C260.771 563.526 260.796 563.892 260.823 564.309C260.858 564.858 260.896 565.494 260.936 566.217C261.008 567.488 261.07 568.849 261.124 570.299C261.178 571.75 261.205 573.137 261.205 574.462V596H255.35V556.737H264.4L275.277 588.078H275.438L286.691 556.737H295.714V596H289.564V574.14L289.565 573.618C289.567 573.316 289.569 573.008 289.572 572.695C289.581 571.915 289.596 571.099 289.618 570.246C289.672 568.849 289.725 567.524 289.779 566.271C289.851 565.018 289.904 564.015 289.94 563.263H289.725L277.99 596H272.296ZM304.403 556.737V596H310.849V556.737H304.403ZM341.801 596H319.565V556.737H341.801V562.162H326.01V572.824H340.808V578.222H326.01V590.548H341.801V596ZM368.054 557.973C365.852 557.149 363.059 556.737 359.675 556.737H348.638V596H355.083V580.263H361.394L370.874 596H378.152L367.007 578.625C368.332 578.087 369.576 577.371 370.74 576.476C371.903 575.581 372.843 574.453 373.56 573.092C374.276 571.732 374.634 570.084 374.634 568.151C374.634 565.555 374.088 563.415 372.996 561.732C371.921 560.049 370.274 558.796 368.054 557.973ZM355.083 562.108H359.246C362.253 562.108 364.473 562.583 365.906 563.532C367.356 564.481 368.081 566.092 368.081 568.366C368.081 570.532 367.401 572.17 366.04 573.28C364.697 574.39 362.531 574.945 359.541 574.945H355.083V562.108ZM478.302 596H451.715V591.247L461.894 580.934C463.863 578.929 465.483 577.201 466.754 575.751C468.026 574.283 468.966 572.895 469.574 571.588C470.201 570.281 470.514 568.858 470.514 567.318C470.514 565.421 469.968 563.988 468.876 563.021C467.784 562.037 466.343 561.544 464.552 561.544C462.851 561.544 461.276 561.885 459.826 562.565C458.393 563.227 456.907 564.176 455.368 565.412L451.903 561.249C452.995 560.318 454.159 559.468 455.395 558.698C456.648 557.928 458.044 557.319 459.584 556.872C461.124 556.406 462.878 556.173 464.848 556.173C467.336 556.173 469.485 556.621 471.293 557.516C473.101 558.393 474.489 559.62 475.456 561.195C476.44 562.771 476.933 564.606 476.933 566.701C476.933 568.813 476.512 570.765 475.67 572.555C474.829 574.346 473.629 576.118 472.072 577.873C470.514 579.609 468.661 581.498 466.513 583.539L459.718 590.172V590.468H478.302V596ZM505.549 570.326C506.265 569.019 506.623 567.479 506.623 565.707C506.623 562.807 505.531 560.497 503.347 558.778C501.162 557.042 498.056 556.173 494.028 556.173C491.289 556.173 488.889 556.558 486.831 557.328C484.771 558.098 482.999 559.038 481.513 560.148L484.548 564.525C485.371 563.988 486.24 563.487 487.153 563.021C488.066 562.556 489.06 562.171 490.134 561.867C491.226 561.562 492.434 561.41 493.759 561.41C495.908 561.41 497.528 561.885 498.62 562.833C499.712 563.764 500.258 565.071 500.258 566.754C500.258 568.043 499.945 569.171 499.318 570.138C498.709 571.105 497.716 571.866 496.337 572.421C494.959 572.958 493.133 573.227 490.859 573.227H487.368V578.302H490.832C493.213 578.302 495.156 578.526 496.66 578.974C498.181 579.421 499.3 580.093 500.017 580.988C500.75 581.883 501.118 583.029 501.118 584.425C501.118 586.592 500.419 588.292 499.023 589.528C497.626 590.745 495.29 591.354 492.014 591.354C490.331 591.354 488.549 591.13 486.669 590.683C484.79 590.235 483.017 589.599 481.352 588.776V594.389C482.981 595.141 484.7 595.687 486.508 596.027C488.334 596.367 490.313 596.537 492.443 596.537C495.988 596.537 498.889 596.027 501.145 595.006C503.4 593.986 505.074 592.589 506.167 590.817C507.259 589.027 507.805 586.994 507.805 584.721C507.805 582.125 506.999 580.039 505.388 578.463C503.794 576.888 501.431 575.903 498.298 575.509V575.321C499.927 574.963 501.359 574.372 502.595 573.549C503.848 572.707 504.833 571.633 505.549 570.326Z" fill="white"/>
</svg>
