<?xml version="1.0" encoding="utf-8"?>
<!-- Generator: Adobe Illustrator 28.0.0, SVG Export Plug-In . SVG Version: 6.00 Build 0)  -->
<svg version="1.1" id="Layer_1" xmlns="http://www.w3.org/2000/svg" xmlns:xlink="http://www.w3.org/1999/xlink" x="0px" y="0px"
	 viewBox="0 0 9524 2212" style="enable-background:new 0 0 9524 2212;" xml:space="preserve">
<style type="text/css">
	.st0{clip-path:url(#SVGID_00000075127215229272436240000003425148935903992489_);}
	.st1{fill:#FBBC04;}
	.st2{fill:#4184F3;}
	.st3{fill:#34A853;}
	.st4{fill:#EA4335;}
	.st5{fill:#FFFFFF;}
</style>
<g>
	<defs>
		<rect id="SVGID_1_" width="2211.9" height="2211.9"/>
	</defs>
	<clipPath id="SVGID_00000149364233952410804070000000669326492507125145_">
		<use xlink:href="#SVGID_1_"  style="overflow:visible;"/>
	</clipPath>
	<g style="clip-path:url(#SVGID_00000149364233952410804070000000669326492507125145_);">
		<path class="st1" d="M1497.1,1888.3c-108-108-108-283.2,0-391.2c-216.1,216.1-566.3,216.1-782.4,0c108,108,108,283.2,0,391.2
			c-108,108-283.2,108-391.2,0c431.4,431.4,1133.4,431.4,1564.8,0C1780.3,1996.3,1605.1,1996.3,1497.1,1888.3z"/>
		<path class="st2" d="M1888.3,323.5c-431.4-431.4-1133.4-431.4-1564.8,0c-431.4,431.4-431.4,1133.4,0,1564.8
			c-108-108-108-283.2,0-391.2c108-108,283.2-108,391.2,0c-216.1-216.1-216.1-566.3,0-782.4s566.3-216.1,782.4,0
			c108,108,283.2,108,391.2,0C1996.3,606.7,1996.3,431.6,1888.3,323.5z"/>
		<path class="st3" d="M519.1,1969.3c152.8,0,276.6-123.9,276.6-276.7c0-152.8-123.9-276.6-276.6-276.6s-276.6,123.9-276.6,276.6
			C242.5,1845.5,366.3,1969.3,519.1,1969.3z"/>
		<path class="st4" d="M1888.3,323.5c108,108,108,283.2,0,391.2c-108,108-283.2,108-391.2,0c216.1,216.1,216.1,566.3,0,782.4
			c-108,108-108,283.2,0,391.2c108,108,283.2,108,391.2,0C2319.7,1456.9,2319.7,755,1888.3,323.5z"/>
	</g>
</g>
<path class="st5" d="M4912,924h-46.5V561.7h46.5l126,220.6h2l126-220.6h46.5V924H5166V709l2-60.7h-2l-113.4,198.9h-27.3L4912,648.2
	h-2l2,60.7V924z M5303.9,848.1c0,12.1,5.1,22.3,15.2,30.4c10.5,8.1,22.6,12.1,36.4,12.1c19.6,0,36.9-7.3,52.1-21.8
	c15.5-14.5,23.3-31.5,23.3-51.1c-14.5-11.5-34.7-17.2-60.7-17.2c-18.9,0-34.7,4.6-47.6,13.7C5310.1,823.3,5303.9,834.6,5303.9,848.1
	z M5364.1,668c34.4,0,61.6,9.3,81.5,27.8c19.9,18.2,29.9,43.3,29.9,75.4V924h-44.5v-34.4h-2c-19.2,28.3-44.9,42.5-76.9,42.5
	c-27.3,0-50.3-8.1-68.8-24.3c-18.2-16.2-27.3-36.4-27.3-60.7c0-25.6,9.6-46,28.8-61.2c19.6-15.2,45.5-22.8,77.9-22.8
	c27.7,0,50.4,5.1,68.3,15.2v-10.6c0-16.2-6.4-29.9-19.2-41c-12.8-11.5-27.8-17.2-45-17.2c-26,0-46.5,11-61.7,32.9l-41-25.8
	C5286.5,684.2,5319.9,668,5364.1,668z M5574.4,924h-46.6V676.1h44.5v40.5h2c4.7-13.2,14.3-24.3,28.8-33.4
	c14.8-9.4,29.4-14.2,43.5-14.2c13.5,0,25,2,34.4,6.1l-14.2,45c-5.7-2.4-14.8-3.5-27.3-3.5c-17.5,0-32.9,7.1-46,21.3
	c-12.8,14.2-19.2,30.7-19.2,49.6V924z M5932.3,924h-56.2l-77.4-116.9l-38,37.4V924h-46.5V561.7h46.5v223.1L5868,676.1h59.7v2
	l-96.6,96.1L5932.3,922V924z M6062.7,932.1c-36.4,0-66.5-12.5-90.1-37.4c-23.6-25-35.4-56.5-35.4-94.6c0-37.8,11.5-69.2,34.4-94.1
	c22.9-25.3,52.3-38,88-38c36.8,0,66,12,87.5,35.9c21.9,23.6,32.9,56.8,32.9,99.7l-0.5,5.1h-194.8c0.7,24.3,8.8,43.9,24.3,58.7
	c15.5,14.8,34.1,22.3,55.7,22.3c29.7,0,53-14.8,69.8-44.5l41.5,20.2c-11.1,20.9-26.6,37.3-46.5,49.1
	C6109.9,926.2,6087.6,932.1,6062.7,932.1z M5988.3,770.2h142.2c-1.4-17.2-8.4-31.4-21.2-42.5c-12.5-11.5-29.4-17.2-50.6-17.2
	c-17.6,0-32.7,5.4-45.5,16.2C6000.6,737.5,5992.4,752,5988.3,770.2z M6313.4,928c-20.2,0-37.1-6.2-50.6-18.7
	c-13.2-12.5-19.9-29.9-20.2-52.1V718.6H6199v-42.5h43.5v-75.9h46.5v75.9h60.7v42.5h-60.7V842c0,16.5,3.2,27.8,9.6,33.9
	c6.4,5.7,13.7,8.6,21.8,8.6c3.7,0,7.3-0.3,10.6-1c3.7-1,7.1-2.2,10.1-3.5l14.7,41.5C6343.8,925.9,6329.6,928,6313.4,928z
	 M6456.8,590.5c0,9.1-3.2,16.9-9.6,23.3c-6.4,6.4-14.2,9.6-23.3,9.6c-9.1,0-16.9-3.2-23.3-9.6c-6.4-6.4-9.6-14.2-9.6-23.3
	c0-9.1,3.2-16.9,9.6-23.3c6.4-6.4,14.2-9.6,23.3-9.6c9.1,0,16.9,3.2,23.3,9.6C6453.6,573.7,6456.8,581.4,6456.8,590.5z
	 M6447.2,676.1V924h-46.6V676.1H6447.2z M6507.8,676.1h44.5v34.4h2c7.1-12.1,17.9-22.3,32.4-30.4c14.8-8.1,30.2-12.1,46-12.1
	c30.4,0,53.6,8.8,69.8,26.3c16.5,17.2,24.8,41.8,24.8,73.9V924h-46.6V771.2c-1-40.5-21.4-60.7-61.2-60.7c-18.5,0-34.1,7.6-46.5,22.8
	c-12.5,14.8-18.7,32.7-18.7,53.6V924h-46.5V676.1z M6890.9,889.6c22.9,0,41.7-8.3,56.2-24.8c15.2-16.5,22.8-38.1,22.8-64.8
	c0-26-7.6-47.4-22.8-64.3c-14.8-16.9-33.6-25.3-56.2-25.3c-22.3,0-41,8.4-56.2,25.3c-15.2,16.9-22.8,38.3-22.8,64.3
	c0,26.3,7.6,47.7,22.8,64.3C6849.9,881.2,6868.6,889.6,6890.9,889.6z M6889.4,1041.4c-13.8,0-26.8-1.8-39-5.6
	c-12.1-3.4-23.3-8.3-33.4-14.7c-9.8-6.4-18.2-14-25.3-22.8c-7.1-8.8-12.5-18.6-16.2-29.3l44-18.2c5.1,14.5,13.8,26.1,26.3,34.9
	s27,13.2,43.5,13.2c25.3,0,45-7.6,59.2-22.8c14.2-15.2,21.2-36.1,21.2-62.7v-23.8h-2c-8.8,13.2-20.8,23.6-35.9,31.4
	c-14.8,7.4-31,11.1-48.6,11.1c-32.4,0-60.2-12.7-83.5-38c-22.9-26-34.4-57.3-34.4-94.1c0-36.8,11.5-68,34.4-93.6
	c23.3-25.6,51.1-38.5,83.5-38.5c17.5,0,33.7,3.9,48.6,11.6c15.2,7.4,27.1,17.7,35.9,30.9h2v-34.4h44.5v237.3
	c0,39.8-11.3,71-33.9,93.6C6957.5,1029.9,6927.1,1041.4,6889.4,1041.4z M7236.9,777.3V924h-46.6V561.7h123.5
	c31.4,0,58,10.5,79.9,31.4c22.3,20.9,33.4,46.4,33.4,76.4c0,30.7-11.1,56.3-33.4,76.9c-21.6,20.6-48.2,30.9-79.9,30.9H7236.9z
	 M7236.9,606.2v126.5h77.9c18.6,0,33.9-6.2,46.1-18.7c12.5-12.5,18.7-27.3,18.7-44.5c0-16.9-6.2-31.5-18.7-44
	c-12.1-12.8-27.5-19.2-46.1-19.2H7236.9z M7516.9,561.7V924h-46.5V561.7H7516.9z M7605.1,848.1c0,12.1,5.1,22.3,15.2,30.4
	c10.5,8.1,22.6,12.1,36.4,12.1c19.6,0,36.9-7.3,52.1-21.8c15.5-14.5,23.3-31.5,23.3-51.1c-14.5-11.5-34.7-17.2-60.7-17.2
	c-18.9,0-34.7,4.6-47.6,13.7C7611.3,823.3,7605.1,834.6,7605.1,848.1z M7665.3,668c34.4,0,61.6,9.3,81.5,27.8
	c19.9,18.2,29.8,43.3,29.8,75.4V924h-44.5v-34.4h-2c-19.2,28.3-44.9,42.5-76.9,42.5c-27.3,0-50.3-8.1-68.8-24.3
	c-18.2-16.2-27.3-36.4-27.3-60.7c0-25.6,9.6-46,28.8-61.2c19.6-15.2,45.5-22.8,77.9-22.8c27.7,0,50.4,5.1,68.3,15.2v-10.6
	c0-16.2-6.4-29.9-19.2-41c-12.8-11.5-27.8-17.2-45-17.2c-26,0-46.5,11-61.7,32.9l-41-25.8C7587.7,684.2,7621.1,668,7665.3,668z
	 M7922.3,928c-19.9,0-36.6-6.2-50.1-18.7c-13.5-12.5-20.4-29.9-20.8-52.1V718.6H7808v-42.5h43.5v-75.9h46.5v75.9h111.3v-35.9
	c0-24.6,7.8-44.5,23.3-59.7c15.9-15.2,36.1-22.8,60.7-22.8c16.9,0,30.7,2.9,41.5,8.6l-12.6,41c-8.1-4-17.2-6.1-27.3-6.1
	c-11.5,0-20.9,4-28.3,12.1c-7.1,7.8-10.6,18.2-10.6,31.4v31.4h64.8v42.5h-64.8V924h-46.5V718.6H7898v125c0,14.5,2.9,25,8.6,31.4
	c6.1,6.4,13.2,9.6,21.3,9.6c7.8,0,15.2-1.5,22.3-4.6l14.7,41.5C7952.3,925.9,7938.2,928,7922.3,928z M8135.6,800
	c0-38.1,12-69.7,35.9-94.6c24.3-25,54.8-37.4,91.6-37.4c36.8,0,67.1,12.5,91.1,37.4c24.3,25,36.4,56.5,36.4,94.6
	c0,38.5-12.1,70-36.4,94.6c-24,25-54.3,37.4-91.1,37.4c-36.8,0-67.3-12.5-91.6-37.4C8147.6,869.7,8135.6,838.1,8135.6,800z
	 M8182.2,800c0,26.6,7.8,48.2,23.3,64.8c15.5,16.5,34.8,24.8,57.7,24.8c22.9,0,42.2-8.3,57.7-24.8c15.5-16.5,23.3-38.1,23.3-64.8
	c0-26.3-7.8-47.7-23.3-64.3c-15.9-16.9-35.1-25.3-57.7-25.3c-22.6,0-41.8,8.4-57.7,25.3C8189.9,752.3,8182.2,773.7,8182.2,800z
	 M8474.5,924H8428V676.1h44.5v40.5h2c4.7-13.2,14.3-24.3,28.8-33.4c14.8-9.4,29.4-14.2,43.5-14.2c13.5,0,25,2,34.4,6.1l-14.2,45
	c-5.7-2.4-14.9-3.5-27.3-3.5c-17.5,0-32.9,7.1-46,21.3c-12.8,14.2-19.2,30.7-19.2,49.6V924z M8658.4,924h-46.5V676.1h44.5v34.4h2
	c7.1-12.1,17.9-22.3,32.4-30.4c14.8-8.1,29.5-12.1,44-12.1c18.2,0,34.2,4.2,48.1,12.7c13.8,8.4,24,20.1,30.4,34.9
	c20.6-31.7,49.1-47.6,85.5-47.6c28.7,0,50.8,8.8,66.3,26.3c15.5,17.5,23.3,42.5,23.3,74.9V924h-46.5V776.2c0-23.3-4.2-40-12.7-50.1
	c-8.4-10.5-22.6-15.7-42.5-15.7c-17.9,0-32.9,7.6-45,22.8c-12.1,15.2-18.2,33.1-18.2,53.6V924h-46.6V776.2c0-23.3-4.2-40-12.6-50.1
	c-8.4-10.5-22.6-15.7-42.5-15.7c-17.9,0-32.9,7.6-45,22.8c-12.1,15.2-18.2,33.1-18.2,53.6V924z"/>
<path class="st5" d="M3419.8,1678.9c0,50.6-18.6,91.2-55.7,121.9c-37.7,30.1-83.4,45.2-137.2,45.2c-47.9,0-90.1-14-126.7-42
	c-36.6-28-61.9-66.2-75.9-114.6l71-29c4.9,17.2,11.6,32.8,20.2,46.8c8.6,14,18.6,26.1,29.9,36.3c11.8,9.7,24.8,17.5,38.7,23.4
	c14,5.4,28.8,8.1,44.4,8.1c33.9,0,61.6-8.6,83.1-25.8c21.5-17.8,32.3-41.2,32.3-70.2c0-24.2-8.9-44.9-26.6-62.1
	c-16.7-16.7-47.9-32.8-93.6-48.4c-46.3-16.7-75.1-28-86.3-33.9c-61.3-31.2-92-77.2-92-138c0-42.5,16.9-78.8,50.8-108.9
	c34.4-30.1,76.7-45.2,126.7-45.2c44.1,0,82.3,11.3,114.6,33.9c32.3,22.1,53.8,49.8,64.6,83.1l-69.4,29
	c-6.4-21.5-19.4-39.3-38.7-53.3c-18.8-14.5-42-21.8-69.4-21.8c-29.1,0-53.5,8.1-73.4,24.2c-19.9,15.1-29.9,34.7-29.9,58.9
	c0,19.9,7.8,37.1,23.4,51.7c17.2,14.5,54.6,31.7,112.2,51.6c58.6,19.9,100.3,44.4,125.1,73.4
	C3407.2,1601.7,3419.8,1636.9,3419.8,1678.9z M3550.3,1711.9c0,19.4,8.1,35.5,24.2,48.4c16.7,12.9,36,19.4,58.1,19.4
	c31.2,0,58.9-11.6,83.1-34.7c24.8-23.1,37.1-50.3,37.1-81.5c-23.1-18.3-55.4-27.4-96.8-27.4c-30.1,0-55.4,7.3-75.9,21.8
	C3560.3,1672.4,3550.3,1690.4,3550.3,1711.9z M3646.4,1424.7c54.9,0,98.2,14.8,129.9,44.4c31.7,29,47.6,69.1,47.6,120.2V1833h-71
	v-54.9h-3.2c-30.7,45.2-71.6,67.8-122.7,67.8c-43.6,0-80.2-12.9-109.8-38.7c-29.1-25.8-43.6-58.1-43.6-96.8
	c0-40.9,15.3-73.4,46-97.7c31.2-24.2,72.6-36.3,124.3-36.3c44.1,0,80.4,8.1,108.9,24.2v-16.9c0-25.8-10.2-47.6-30.7-65.4
	c-20.4-18.3-44.4-27.4-71.8-27.4c-41.4,0-74.2,17.5-98.5,52.5l-65.4-41.2C3522.6,1450.5,3575.9,1424.7,3646.4,1424.7z
	 M3981.9,1255.2V1833h-74.2v-577.8H3981.9z M4245.9,1845.9c-58.1,0-106-19.9-143.6-59.7c-37.7-39.8-56.5-90.1-56.5-150.9
	c0-60.2,18.3-110.3,54.9-150.1c36.6-40.4,83.4-60.5,140.4-60.5c58.6,0,105.2,19.1,139.6,57.3c35,37.7,52.5,90.7,52.5,159l-0.8,8.1
	h-310.7c1.1,38.7,14,69.9,38.7,93.6c24.8,23.7,54.3,35.5,88.8,35.5c47.3,0,84.5-23.7,111.4-71l66.2,32.3
	c-17.8,33.3-42.5,59.4-74.2,78.3C4321.3,1836.5,4285.8,1845.9,4245.9,1845.9z M4127.3,1587.7h226.8c-2.1-27.4-13.5-50-33.9-67.8
	c-19.9-18.3-46.8-27.4-80.7-27.4c-28,0-52.2,8.6-72.6,25.8C4147,1535.5,4133.8,1558.6,4127.3,1587.7z M4807.6,1723.2
	c0,34.4-15.1,63.5-45.2,87.2c-30.1,23.7-68.1,35.5-113.8,35.5c-39.8,0-74.8-10.2-104.9-30.7c-30.1-21-51.6-48.4-64.6-82.3l66.2-28.2
	c9.7,23.7,23.7,42.2,42,55.7c18.8,12.9,39.3,19.4,61.3,19.4c23.7,0,43.3-5.1,58.9-15.3c16.1-10.2,24.2-22.3,24.2-36.3
	c0-25.3-19.4-43.8-58.1-55.7l-67.8-17c-76.9-19.4-115.4-56.5-115.4-111.4c0-36,14.5-64.8,43.6-86.3c29.6-22.1,67.2-33.1,113-33.1
	c35,0,66.4,8.3,94.4,25c28.5,16.7,48.4,39,59.7,67l-66.2,27.4c-7.5-16.7-19.9-29.6-37.1-38.7c-16.7-9.7-35.5-14.5-56.5-14.5
	c-19.4,0-36.9,4.8-52.4,14.5c-15.1,9.7-22.6,21.5-22.6,35.5c0,22.6,21.2,38.7,63.8,48.4l59.7,15.3
	C4768.4,1624,4807.6,1663.5,4807.6,1723.2z M5136.7,1599v234h-74.2v-577.8h196.9c50,0,92.5,16.7,127.5,50
	c35.5,33.4,53.3,74,53.3,121.9c0,49-17.8,89.8-53.3,122.7c-34.4,32.8-76.9,49.2-127.5,49.2H5136.7z M5136.7,1326.2v201.8H5261
	c29.6,0,54.1-9.9,73.4-29.9c19.9-19.9,29.9-43.6,29.9-71c0-26.9-10-50.3-29.9-70.2c-19.4-20.4-43.9-30.7-73.4-30.7H5136.7z
	 M5543.4,1711.9c0,19.4,8.1,35.5,24.2,48.4c16.7,12.9,36,19.4,58.1,19.4c31.2,0,58.9-11.6,83.1-34.7c24.8-23.1,37.1-50.3,37.1-81.5
	c-23.1-18.3-55.4-27.4-96.8-27.4c-30.1,0-55.4,7.3-75.9,21.8C5553.3,1672.4,5543.4,1690.4,5543.4,1711.9z M5639.4,1424.7
	c54.9,0,98.2,14.8,129.9,44.4c31.7,29,47.6,69.1,47.6,120.2V1833h-71v-54.9h-3.2c-30.7,45.2-71.6,67.8-122.7,67.8
	c-43.6,0-80.2-12.9-109.8-38.7c-29-25.8-43.6-58.1-43.6-96.8c0-40.9,15.3-73.4,46-97.7c31.2-24.2,72.6-36.3,124.3-36.3
	c44.1,0,80.4,8.1,108.9,24.2v-16.9c0-25.8-10.2-47.6-30.7-65.4c-20.4-18.3-44.4-27.4-71.8-27.4c-41.4,0-74.2,17.5-98.5,52.5
	l-65.4-41.2C5515.7,1450.5,5568.9,1424.7,5639.4,1424.7z M6363.9,1839.5c-32.3,0-59.2-10-80.7-29.9c-21-19.9-31.8-47.6-32.3-83.1
	v-221.1h-69.4v-67.8h69.4v-121h74.2v121h96.8v67.8h-96.8v196.9c0,26.4,5.1,44.4,15.3,54.1c10.2,9.2,21.8,13.7,34.7,13.7
	c5.9,0,11.6-0.5,17-1.6c5.9-1.6,11.3-3.5,16.1-5.6l23.4,66.2C6412.3,1836,6389.7,1839.5,6363.9,1839.5z M5900.7,1437.6h71v64.6h3.2
	c22.1-50.6,67.5-75.9,136.4-75.9l15.3,1.6v77.5l-33.1-3.2c-34.4,0-62.9,10.8-85.5,32.3c-22.1,21-33.1,47.9-33.1,80.7V1833h-74.2
	V1437.6z M6497.3,1437.6h71v54.9h3.2c11.3-19.4,28.5-35.5,51.6-48.4c23.7-12.9,48.1-19.4,73.4-19.4c48.4,0,85.5,14,111.4,42
	c26.4,27.4,39.5,66.7,39.5,117.8V1833h-74.2v-243.7c-1.6-64.6-34.2-96.8-97.6-96.8c-29.6,0-54.3,12.1-74.2,36.3
	c-19.9,23.7-29.9,52.2-29.9,85.5V1833h-74.2V1437.6z M7112.2,1845.9c-58.1,0-106-19.9-143.6-59.7c-37.7-39.8-56.5-90.1-56.5-150.9
	c0-60.2,18.3-110.3,54.9-150.1c36.6-40.4,83.4-60.5,140.4-60.5c58.6,0,105.2,19.1,139.6,57.3c35,37.7,52.5,90.7,52.5,159l-0.8,8.1
	h-310.7c1.1,38.7,14,69.9,38.7,93.6c24.7,23.7,54.3,35.5,88.8,35.5c47.3,0,84.5-23.7,111.4-71l66.2,32.3
	c-17.8,33.3-42.5,59.4-74.2,78.3C7187.5,1836.5,7152,1845.9,7112.2,1845.9z M6993.6,1587.7h226.8c-2.2-27.4-13.5-50-33.9-67.8
	c-19.9-18.3-46.8-27.4-80.7-27.4c-28,0-52.2,8.6-72.6,25.8C7013.2,1535.5,7000,1558.6,6993.6,1587.7z M7441.6,1833h-74.2v-395.4h71
	v64.6h3.2c7.5-21,22.9-38.7,46-53.3c23.7-15.1,46.8-22.6,69.4-22.6c21.5,0,39.8,3.2,54.9,9.7l-22.6,71.8c-9.1-3.8-23.7-5.7-43.6-5.7
	c-28,0-52.4,11.3-73.4,33.9c-20.5,22.6-30.7,49-30.7,79.1V1833z"/>
<g>
	<path class="st5" d="M3718.1,790c0,78.8-61.8,136.6-137.7,136.6c-75.9,0-137.1-57.8-137.1-136.6c0-79.4,61.7-136.6,137.7-136.6
		S3718.1,710.6,3718.1,790z M3658.2,790c0-49.2-35.8-83.1-77.2-83.1c-41.4,0-77.2,33.8-77.2,83.1c0,48.6,35.8,83.1,77.2,83.1
		C3622.4,873,3658.2,838.6,3658.2,790z"/>
	<path class="st5" d="M4015.1,790c0,78.8-61.7,136.6-137.7,136.6c-75.9,0-137.7-57.8-137.7-136.6c0-79.4,61.8-136.6,137.7-136.6
		C3953.3,653.4,4015.1,710.6,4015.1,790z M3955.2,790c0-49.2-35.8-83.1-77.2-83.1c-41.4,0-77.2,33.8-77.2,83.1
		c0,48.6,35.8,83.1,77.2,83.1C3919.4,873,3955.2,838.6,3955.2,790z"/>
	<path class="st5" d="M4299.7,661.4v245.5c0,100.9-59.9,142.1-130.3,142.1c-66.7,0-106.2-44.3-121.6-80.6l52.5-21.5
		c9.3,22.1,32.1,48.6,69.2,48.6c45.1,0,73.5-27.7,73.5-80v-19.7h-1.9c-13.6,16.6-39.5,30.8-72.2,30.8c-68.5,0-131.5-59.7-131.5-136
		c0-76.9,63-137.2,131.5-137.2c32.7,0,58.7,14.8,72.2,30.8h1.9V662L4299.7,661.4z M4246.6,790.6c0-48-32.1-83.1-73.5-83.1
		c-41.4,0-76.5,35.1-76.5,83.1c0,47.4,34.6,82.5,76.5,82.5C4214.5,872.4,4246.6,838,4246.6,790.6z"/>
	<path class="st5" d="M4393.5,517.4v400.6h-58.6V517.4H4393.5z"/>
	<path class="st5" d="M4622.6,834.9l46.9,30.8c-14.8,22.2-51.2,60.3-114.2,60.3c-77.8,0-135.8-60.3-135.8-136.6
		c0-81.2,58.6-136.6,129-136.6c71,0,106.2,56.6,117.3,86.8l6.2,15.4l-183.4,75.7c14.2,27.7,35.8,41.2,66.7,41.2
		C4585.6,872.4,4607.2,857.6,4622.6,834.9z M4478.8,785.7l122.2-50.5c-6.8-17.2-27.2-28.9-50.6-28.9
		C4520.1,705.7,4477.5,732.7,4478.8,785.7z"/>
	<path class="st5" d="M3221.1,754.3v-57.8h196.3c1.9,9.8,3.1,22.2,3.1,35.1c0,43.7-11.7,97.2-50.6,135.4
		c-37.7,38.8-85.8,59.7-148.8,59.7c-117.3,0-216.1-95.4-216.1-212.3S3103.8,502,3221.1,502c64.8,0,111.1,25.2,145.7,58.5l-40.8,41.2
		c-24.7-23.4-58.7-41.2-105-41.2c-85.8,0-152.5,68.9-152.5,154.4c0,85.5,66.7,153.2,152.5,153.2c55.6,0,87.1-22.1,107.4-42.5
		c16.7-16.6,27.2-40,31.5-72L3221.1,754.3z"/>
</g>
</svg>
