<svg width="114" height="66" viewBox="0 0 114 66" fill="none" xmlns="http://www.w3.org/2000/svg">
<path d="M46.3105 17.582H49.3873L54.6391 27.148L59.8908 17.582H62.9145V33.2938H60.4213V21.216L55.8061 29.5529H53.472L48.8038 21.216V33.2403H46.3105V17.582Z" fill="white"/>
<path d="M23.7122 17.1016C23.6592 17.1016 23.6592 17.1016 23.7122 17.1016L23.6592 19.7736C25.4098 19.7736 26.789 21.1631 29.7066 26.1331L29.8658 26.4538L31.5103 23.942C31.1389 23.3008 30.7676 22.7129 30.3963 22.1785C29.9719 21.5372 29.6005 21.0028 29.1762 20.5218C27.2664 18.0101 25.622 17.1016 23.7122 17.1016Z" fill="url(#paint0_linear_438_999)"/>
<path d="M23.6593 17.1016C21.6965 17.1016 19.9459 18.3842 18.7258 20.3615L21.0069 21.6441C21.7496 20.5218 22.6514 19.8271 23.6062 19.8271L23.6593 17.1016Z" fill="url(#paint1_linear_438_999)"/>
<path d="M18.7257 20.3076C17.877 21.5902 17.2935 23.1934 16.9221 24.9036L19.5215 25.4914C19.7867 23.9951 20.3172 22.6056 21.0068 21.5368L18.7257 20.3076Z" fill="url(#paint2_linear_438_999)"/>
<path d="M19.5216 25.5449L16.9222 24.957C16.7631 25.919 16.657 26.8275 16.657 27.7894L19.3094 28.0032C19.3094 27.9497 19.3094 27.8963 19.3094 27.8429C19.3094 27.0947 19.3624 26.2931 19.5216 25.5449Z" fill="url(#paint3_linear_438_999)"/>
<path d="M19.4155 28.8589C19.3624 28.5917 19.3624 28.3245 19.3094 28.0038L16.657 27.79C16.657 28.3245 16.71 28.9123 16.8161 29.4467L19.4155 28.8589Z" fill="url(#paint4_linear_438_999)"/>
<path d="M19.9988 30.2481C19.7336 29.9275 19.5214 29.5 19.4153 28.9121L16.8159 29.5C17.0281 30.5153 17.3994 31.3704 17.9299 32.0651L19.9988 30.2481Z" fill="url(#paint5_linear_438_999)"/>
<path d="M27.6379 22.873C26.0995 25.2779 25.1446 26.7743 25.1446 26.7743C23.0758 30.0342 22.3331 30.7824 21.2191 30.7824C20.7416 30.7824 20.3173 30.622 20.052 30.3014L17.9832 32.065C18.7258 32.9735 19.7868 33.4544 21.113 33.4544C23.1288 33.4544 24.5611 32.4925 27.1074 28.0034C27.1074 28.0034 28.1684 26.133 28.911 24.7969C28.4336 24.0488 28.0092 23.4075 27.6379 22.873Z" fill="#0082FB"/>
<path d="M30.4494 19.0791C30.3963 19.0791 30.3963 19.0791 30.4494 19.0791C30.025 19.5601 29.6006 20.041 29.2292 20.522C29.6006 21.003 30.025 21.5908 30.4494 22.1787C30.9268 21.4305 31.4042 20.7892 31.8286 20.3083L30.4494 19.0791Z" fill="url(#paint6_linear_438_999)"/>
<path d="M37.9821 18.8114C36.9211 17.6891 35.5949 17.0479 34.2157 17.0479C32.7303 17.0479 31.5102 17.8495 30.3962 19.0252L31.8285 20.3078C32.5712 19.5596 33.2608 19.1855 34.0565 19.1855C34.9053 19.1855 35.701 19.5596 36.3907 20.3078L37.9821 18.8114Z" fill="#0082FB"/>
<path d="M41.1119 27.4156C41.0588 23.8884 39.8387 20.682 37.9821 18.8115L36.3906 20.3079C37.7699 21.7508 38.7247 24.3694 38.7778 27.4156H41.1119Z" fill="url(#paint7_linear_438_999)"/>
<path d="M41.1119 27.4691H38.7778C38.7778 27.6294 38.7778 27.7363 38.7778 27.8966C38.7778 28.7517 38.6717 29.393 38.4065 29.8739L40.1571 31.6909C40.7936 30.729 41.1119 29.3395 41.1119 27.6828C41.1119 27.6294 41.1119 27.5225 41.1119 27.4691Z" fill="url(#paint8_linear_438_999)"/>
<path d="M38.4065 29.874C38.1943 30.3016 37.876 30.5688 37.4517 30.6756L38.2474 33.1874C38.3535 33.1339 38.4596 33.1339 38.5657 33.0805C38.6187 33.0805 38.6187 33.0271 38.6718 33.0271H38.7248C39.2553 32.7599 39.7327 32.3858 40.051 31.8513C40.051 31.7979 40.1041 31.7979 40.1041 31.7445L40.1571 31.691L38.4065 29.874Z" fill="url(#paint9_linear_438_999)"/>
<path d="M36.9742 30.7824C36.7089 30.7824 36.4967 30.729 36.2315 30.6221L35.4358 33.1873C35.9132 33.3476 36.3907 33.401 36.9211 33.401C37.3986 33.401 37.876 33.3476 38.3004 33.1873L37.5047 30.6755C37.3455 30.729 37.1333 30.7824 36.9742 30.7824Z" fill="url(#paint10_linear_438_999)"/>
<path d="M35.3296 29.874L33.4199 31.7979C34.0565 32.4926 34.6931 32.9202 35.3827 33.1874L36.1784 30.6222C35.9662 30.5153 35.6479 30.3016 35.3296 29.874Z" fill="url(#paint11_linear_438_999)"/>
<path d="M35.3298 29.8734C34.7463 29.2321 34.0567 28.1098 32.9957 26.3463L31.5634 23.9414L29.9189 26.4531L30.9269 28.1633C31.8817 29.8199 32.6774 30.9957 33.4732 31.8507L35.3298 29.8734Z" fill="url(#paint12_linear_438_999)"/>
<path d="M70.9779 33.5609C69.917 33.5609 68.856 33.2937 67.9011 32.7593C67.0524 32.2249 66.3097 31.4767 65.8323 30.6216C65.3018 29.6597 65.0896 28.5374 65.0896 27.4686C65.0896 26.3463 65.3018 25.2775 65.8323 24.2621C66.3097 23.3536 66.9993 22.6054 67.8481 22.071C68.7499 21.5366 69.7578 21.2694 70.8188 21.2694C71.8267 21.216 72.7816 21.4832 73.6303 22.0176C74.4791 22.552 75.1157 23.3536 75.487 24.2621C75.9644 25.3309 76.1766 26.4532 76.1236 27.6289V28.3237H67.5829C67.689 29.1787 68.1133 29.9803 68.7499 30.5682C69.3865 31.1026 70.2353 31.4233 71.084 31.3698C71.7206 31.3698 72.4102 31.2629 73.0468 31.0492C73.6303 30.782 74.1078 30.4613 74.5852 30.0338L75.9114 31.6905C74.5321 32.9196 72.7816 33.6143 70.9779 33.5609ZM72.8346 24.2621C72.5694 23.9949 72.2511 23.7811 71.8797 23.6208C71.5084 23.4605 71.1371 23.4071 70.7657 23.4605C70.3944 23.4605 70.0231 23.5139 69.6517 23.6743C69.2804 23.8346 68.9621 24.0484 68.6969 24.3156C68.1133 24.9034 67.742 25.705 67.6359 26.5601H73.7364C73.7364 25.6516 73.4181 24.85 72.8346 24.2621Z" fill="white"/>
<path d="M79.2003 23.6744H76.8662V21.5902H79.2003V18.1699H81.6405V21.5902H85.1417V23.6744H81.6405V28.9116C81.6405 29.7667 81.7997 30.408 82.0649 30.7821C82.3832 31.1562 82.8606 31.3699 83.6033 31.3165C83.8685 31.3165 84.1338 31.3165 84.399 31.263C84.6112 31.263 84.8765 31.2096 85.1417 31.1562V33.1869C84.8234 33.2938 84.5051 33.3472 84.2399 33.4007C83.8685 33.4541 83.4972 33.4541 83.1259 33.4541C80.5265 33.4541 79.2003 32.0112 79.2003 29.1254V23.6744Z" fill="white"/>
<path d="M97.8202 33.2941H95.433V31.6374C95.0086 32.2253 94.4781 32.7062 93.8416 33.0803C93.1519 33.401 92.4093 33.6147 91.6136 33.5613C90.6587 33.5613 89.7038 33.2941 88.9081 32.7597C88.1124 32.2253 87.4758 31.4771 87.0514 30.5686C86.574 29.6066 86.3618 28.4844 86.3618 27.4155C86.3618 26.2933 86.574 25.2245 87.0514 24.2625C87.4758 23.354 88.1124 22.6058 88.9612 22.1249C89.8099 21.5904 90.7648 21.3232 91.7727 21.3232C92.5154 21.3232 93.258 21.4836 93.8946 21.8042C94.5312 22.1249 95.0617 22.5524 95.4861 23.0868V21.5904H97.8732V33.2941H97.8202ZM95.38 25.7054C95.1147 25.0641 94.6903 24.5297 94.1599 24.1556C93.5763 23.7815 92.8867 23.5678 92.1971 23.5678C91.7197 23.5678 91.2422 23.6212 90.8178 23.835C90.3935 23.9953 90.0221 24.316 89.7038 24.6366C89.0673 25.3313 88.802 26.2933 88.802 27.469C88.802 28.6447 89.1203 29.6066 89.7038 30.3014C90.0221 30.6755 90.3935 30.9427 90.7648 31.103C91.1892 31.2633 91.6136 31.3702 92.091 31.3702C92.7806 31.3702 93.5233 31.1564 94.1068 30.7824C94.6903 30.4083 95.1147 29.8738 95.38 29.2326V25.7054Z" fill="white"/>
<path d="M34.6931 41.4706C34.534 41.6309 34.481 41.7378 34.481 41.9516C34.481 42.3791 34.7462 42.6463 35.1706 42.6463C35.595 42.6463 35.8602 42.3791 35.8602 41.9516C35.8602 41.524 35.595 41.2568 35.1706 41.2568C34.9584 41.3103 34.7992 41.3103 34.6931 41.4706Z" fill="white"/>
<path d="M16.1794 45.1047V48.7387H18.3544C20.3702 48.7387 20.5294 48.6853 20.9007 48.525C21.3781 48.3112 21.8025 47.9371 21.9617 47.5096C22.0147 47.3492 22.0678 47.0286 22.0678 46.708C22.0678 45.8529 21.7495 45.3719 21.0068 44.9978L20.6355 44.8909L20.8477 44.7841C21.3781 44.5169 21.6434 44.0893 21.6434 43.3411C21.6434 42.8602 21.5903 42.6999 21.4312 42.4326C20.9538 41.631 20.4233 41.4707 17.9831 41.4707H16.1794V45.1047ZM20.105 42.593C20.4233 42.7533 20.5824 43.0739 20.5824 43.5015C20.5824 43.929 20.4233 44.2497 20.105 44.41C19.8928 44.5169 19.6276 44.5703 18.5666 44.5703L17.2934 44.6237V43.5015V42.3792L18.5666 42.4326C19.6276 42.4326 19.9458 42.4861 20.105 42.593ZM20.4763 45.746C20.7946 45.9063 20.9538 46.227 20.9538 46.708C20.9538 47.0286 20.9007 47.1355 20.7416 47.3492C20.4233 47.7233 20.105 47.7768 18.5666 47.7768H17.2934V46.6545V45.5322L18.7788 45.5857C19.9989 45.6391 20.2641 45.6391 20.4763 45.746Z" fill="white"/>
<path d="M62.0659 45.1044V48.7384H62.6494H63.233V47.5627V46.3336H64.4C65.0366 46.3336 65.7793 46.2802 65.9915 46.2267C66.575 46.1198 67.1585 45.7457 67.4238 45.3182C68.0603 44.4097 67.9012 42.6996 67.1055 42.0583C66.9463 41.9514 66.6811 41.7911 66.4689 41.6842C66.0445 41.4704 66.0445 41.4704 64.0817 41.4704L62.0659 41.417V45.1044ZM65.6732 42.5927C65.9915 42.6461 66.2567 42.8599 66.5219 43.1271C66.7341 43.4478 66.7341 44.3563 66.5219 44.6235C66.1506 45.1579 65.8323 45.2648 64.2939 45.2648H63.1799V43.8753V42.4858H64.2939C64.9305 42.4858 65.5671 42.5393 65.6732 42.5927Z" fill="white"/>
<path d="M79.0413 42.7528V43.5544H78.5639H78.0864V43.9819V44.4095H78.5639H79.0413L79.0943 46.0127C79.0943 47.5625 79.1474 47.6159 79.3065 47.9366C79.6779 48.6313 80.5266 48.8985 81.6406 48.7382L81.9059 48.6848V48.2038V47.7228L81.3754 47.7763C81.0041 47.7763 80.7919 47.7763 80.5797 47.6694C80.1553 47.4556 80.1022 47.2419 80.1022 45.6921V44.356H80.951H81.7998V43.9285V43.501H80.951H80.1022V42.7528V41.9512H79.5718H79.0413V42.7528Z" fill="white"/>
<path d="M30.3963 43.5013C29.6537 43.7685 29.2293 44.1961 29.1762 44.8908C29.1232 45.2649 29.1762 45.3718 29.3354 45.6924C29.6006 46.1199 30.025 46.3337 31.1921 46.6009C32.0408 46.8147 32.3591 46.9216 32.4652 47.2422C32.4652 47.2956 32.4652 47.456 32.3591 47.5629C31.9878 48.1507 30.6616 48.0973 29.972 47.5094L29.7067 47.2422L29.3354 47.5629C29.1762 47.7232 29.0171 47.8835 29.0171 47.9369C29.0171 48.0438 29.6006 48.4714 29.972 48.6851C30.3433 48.8454 30.4494 48.8989 31.2982 48.8989C32.0939 48.8989 32.253 48.8989 32.5713 48.6851C32.7835 48.5782 33.0487 48.3645 33.1548 48.2041C33.367 47.9904 33.4201 47.8301 33.4201 47.456C33.4731 46.8681 33.367 46.6009 32.9957 46.2803C32.6243 45.9596 32.4122 45.9062 31.4042 45.639C30.3433 45.3718 30.1841 45.3183 30.2372 44.9442C30.2902 44.5701 30.5555 44.3564 31.086 44.3564C31.6164 44.3029 31.9878 44.4098 32.3591 44.7839L32.6243 45.0511L32.9426 44.7839C33.1548 44.6236 33.2609 44.5167 33.314 44.4633C33.367 44.3564 32.7304 43.822 32.3591 43.6616C31.9878 43.3944 30.8738 43.341 30.3963 43.5013Z" fill="white"/>
<path d="M39.3615 43.4482C39.0432 43.5551 38.6719 43.8223 38.4597 44.0895L38.2475 44.3567V43.9826V43.6085H37.717H37.1865V46.2271V48.8458H37.717H38.2475V47.1891V45.4255L38.5127 45.0514C38.9371 44.4101 39.7859 44.1429 40.3694 44.517C40.7938 44.7842 40.8999 45.1583 40.8999 47.0822V48.7389H41.4304H41.9608L41.9078 46.815C41.8547 45.2117 41.8547 44.8377 41.7486 44.5705C41.5895 44.0895 41.1121 43.6085 40.6877 43.5016C40.3164 43.3947 39.6267 43.3947 39.3615 43.4482Z" fill="white"/>
<path d="M44.6661 43.5549C43.6582 43.9289 43.0747 44.8375 43.0747 46.1735C43.0747 47.1889 43.393 47.9905 44.0826 48.4715C44.8253 49.0059 45.9923 49.0593 46.8411 48.6318C47.1064 48.5249 47.3716 48.3111 47.4777 48.2577C47.6368 48.0974 47.6368 48.0974 47.3185 47.7767L47.0003 47.4561L46.6289 47.6698C45.7271 48.2043 44.6661 47.9905 44.2948 47.082C44.0296 46.4941 43.9235 46.4941 46.0454 46.4941H47.9551V46.2269C47.9551 45.265 47.5838 44.2496 47.0533 43.8221C46.4698 43.3945 45.4619 43.2877 44.6661 43.5549ZM46.2576 44.5168C46.4698 44.6771 46.735 45.1581 46.8411 45.5322L46.8942 45.746H45.5149C43.9765 45.746 44.0296 45.746 44.2418 45.2115C44.4009 44.8909 44.6661 44.5168 44.9844 44.4099C45.3027 44.2496 45.9923 44.303 46.2576 44.5168Z" fill="white"/>
<path d="M50.1302 43.5013C49.3876 43.7685 48.9632 44.1961 48.9101 44.8908C48.8571 45.2649 48.9101 45.3718 49.0693 45.6924C49.3345 46.1199 49.7589 46.3337 50.9259 46.6009C51.7747 46.8147 52.093 46.9216 52.1991 47.2422C52.1991 47.2956 52.1991 47.456 52.093 47.5629C51.7217 48.1507 50.3955 48.0973 49.7058 47.5094L49.4406 47.2422L49.0693 47.5629C48.9101 47.7232 48.751 47.8835 48.751 47.9369C48.751 48.0438 49.3345 48.4714 49.7058 48.6851C50.0772 48.8454 50.1833 48.8989 51.032 48.8989C51.8278 48.8989 51.9869 48.8989 52.3052 48.6851C52.5174 48.5782 52.7826 48.3645 52.8887 48.2041C53.1009 47.9904 53.154 47.8301 53.154 47.456C53.207 46.8681 53.1009 46.6009 52.7296 46.2803C52.3582 45.9596 52.146 45.9062 51.1381 45.639C50.0772 45.3718 49.918 45.3183 49.9711 44.9442C50.0241 44.5701 50.2894 44.3564 50.8198 44.3564C51.3503 44.3029 51.7217 44.4098 52.093 44.7839L52.3582 45.0511L52.6765 44.7839C52.8887 44.6236 52.9948 44.5167 53.0479 44.4633C53.1009 44.3564 52.4643 43.822 52.093 43.6616C51.7217 43.3944 50.6077 43.341 50.1302 43.5013Z" fill="white"/>
<path d="M55.3819 43.5014C54.6392 43.7686 54.2148 44.1962 54.1618 44.8909C54.1087 45.265 54.1618 45.3719 54.3209 45.6925C54.5861 46.12 55.0105 46.3338 56.1776 46.601C57.0263 46.8148 57.3446 46.9217 57.4507 47.2423C57.4507 47.2958 57.4507 47.4561 57.3446 47.563C56.9733 48.1508 55.6471 48.0974 54.9575 47.5095L54.6922 47.2423L54.374 47.5095C54.2148 47.6698 54.0557 47.8302 54.0557 47.8836C54.0557 47.9905 54.6392 48.418 55.0105 48.6318C55.3819 48.7921 55.488 48.8456 56.3367 48.8456C57.1324 48.8456 57.2916 48.8456 57.6099 48.6318C57.8221 48.5249 58.0873 48.3111 58.1934 48.1508C58.4056 47.937 58.4586 47.7767 58.4586 47.4026C58.5117 46.8148 58.4056 46.5476 58.0343 46.2269C57.6629 45.9063 57.4507 45.8528 56.4428 45.5856C55.3819 45.3184 55.2227 45.265 55.2758 44.8909C55.3288 44.5168 55.5941 44.303 56.1245 44.303C56.655 44.2496 57.0263 44.3565 57.3977 44.7306L57.6629 44.9978L57.9812 44.7306C58.1934 44.5702 58.2995 44.4634 58.3525 44.4099C58.4056 44.303 57.769 43.7686 57.3977 43.6083C56.9202 43.3945 55.8593 43.3411 55.3819 43.5014Z" fill="white"/>
<path d="M70.1292 43.5011C69.9701 43.5545 69.7049 43.6614 69.5988 43.7148C69.3335 43.8752 68.803 44.3561 68.8561 44.463C68.8561 44.463 69.0152 44.6233 69.1744 44.7837L69.4927 45.0509L69.7579 44.7837C70.6067 43.982 71.9329 44.3027 72.039 45.3181L72.092 45.6387L70.925 45.6922C69.864 45.6922 69.7579 45.7456 69.3866 45.9059C68.6439 46.28 68.3256 47.1885 68.6439 47.9367C69.0683 48.9521 70.7128 49.1658 71.6676 48.3108L71.9859 47.9901V48.3642V48.7383H72.5164H73.0469L72.9938 46.8144C72.9938 45.5853 72.9408 44.8371 72.8877 44.6233C72.7286 44.1958 72.1451 43.6079 71.6676 43.5011C71.3493 43.3942 70.5536 43.3942 70.1292 43.5011ZM72.092 46.761C72.092 46.9747 72.039 47.0816 71.7207 47.4023C71.2963 47.8298 70.925 47.9901 70.3414 47.8832C69.4927 47.8298 69.3335 46.9213 70.0762 46.6007C70.2353 46.5472 70.6067 46.4938 71.1902 46.4938H72.039V46.761H72.092Z" fill="white"/>
<path d="M76.3889 43.5546C76.2298 43.608 75.9645 43.8218 75.8584 43.9821L75.5932 44.2493V43.8752V43.5011H75.0627H74.5322V46.1198V48.7384H75.0627H75.5932V47.0817V45.425L75.8584 45.0509C76.1767 44.57 76.495 44.4096 77.0255 44.4096H77.4499V43.8752V43.3408H77.0785C76.8663 43.3943 76.548 43.4477 76.3889 43.5546Z" fill="white"/>
<path d="M85.0888 43.4482C84.7705 43.5551 84.3992 43.8223 84.187 44.0895L83.9748 44.3567V43.9826V43.6085H83.4443H82.9138V46.2271V48.8458H83.4443H83.9748V47.1891V45.4255L84.24 45.0514C84.6644 44.4101 85.5132 44.1429 86.0967 44.517C86.5211 44.7842 86.6272 45.1583 86.6272 47.0822V48.7389H87.1577H87.6881L87.6351 46.815C87.582 45.2117 87.582 44.8377 87.4759 44.5705C87.3168 44.0895 86.8394 43.6085 86.415 43.5016C86.0436 43.3947 85.4071 43.3947 85.0888 43.4482Z" fill="white"/>
<path d="M90.4467 43.5549C89.4388 43.9289 88.8552 44.8375 88.8552 46.1735C88.8552 47.1889 89.1735 47.9905 89.8631 48.4715C90.6058 49.0059 91.7729 49.0593 92.6216 48.6318C92.8869 48.5249 93.1521 48.3111 93.2582 48.2577C93.4173 48.0974 93.4173 48.0974 93.0991 47.7767L92.7808 47.4561L92.4094 47.6698C91.5076 48.2043 90.4467 47.9905 90.0753 47.082C89.8101 46.4941 89.704 46.4941 91.8259 46.4941H93.7356V46.2269C93.7356 45.265 93.3643 44.2496 92.8338 43.8221C92.2503 43.3945 91.2424 43.2877 90.4467 43.5549ZM92.0381 44.5168C92.2503 44.6771 92.5155 45.1581 92.6216 45.5322L92.6747 45.746H91.2954C89.757 45.746 89.8101 45.746 90.0223 45.2115C90.1814 44.8909 90.4467 44.5168 90.765 44.4099C91.0832 44.2496 91.7729 44.303 92.0381 44.5168Z" fill="white"/>
<path d="M96.7063 43.5546C96.5471 43.608 96.2819 43.8218 96.1758 43.9821L95.9106 44.2493V43.8752V43.5011H95.3801H94.8496V46.1198V48.7384H95.3801H95.9106V47.0817V45.425L96.1758 45.0509C96.4941 44.57 96.8124 44.4096 97.3429 44.4096H97.7672V43.8752V43.3408H97.3959C97.1837 43.3943 96.9185 43.4477 96.7063 43.5546Z" fill="white"/>
<path d="M23.1819 45.318C23.1819 46.654 23.2349 47.1884 23.288 47.5091C23.5002 48.4176 24.0307 48.8451 24.8794 48.8985C25.569 48.952 25.9404 48.7917 26.4709 48.3641L26.8952 47.99V48.3641V48.7382H27.3727H27.8501V46.1196V43.501H27.3727H26.8952V45.1042C26.8952 46.9212 26.8422 47.0281 26.3117 47.5625C25.6221 48.2038 24.6142 47.99 24.3489 47.1884C24.2959 47.0281 24.2428 46.2799 24.2428 45.2111V43.5544H23.7124H23.1819V45.318Z" fill="white"/>
<path d="M34.6401 46.1733V48.7919H35.1706H35.7011V46.1733V43.5547H35.1706H34.6401V46.1733Z" fill="white"/>
<path d="M109.809 65.3587H4.19069C2.22791 65.3587 0.636475 63.7555 0.636475 61.7782V4.16846C0.636475 2.19113 2.22791 0.587891 4.19069 0.587891H109.809C111.772 0.587891 113.363 2.19113 113.363 4.16846V61.7782C113.31 63.7555 111.772 65.3587 109.809 65.3587Z" stroke="white" stroke-width="1.1042" stroke-miterlimit="10"/>
<defs>
<linearGradient id="paint0_linear_438_999" x1="30.4504" y1="25.4528" x2="24.927" y2="18.2602" gradientUnits="userSpaceOnUse">
<stop offset="0.0006" stop-color="#0867DF"/>
<stop offset="0.4539" stop-color="#0668E1"/>
<stop offset="0.8591" stop-color="#0064E0"/>
</linearGradient>
<linearGradient id="paint1_linear_438_999" x1="19.7894" y1="20.7703" x2="23.5635" y2="17.9228" gradientUnits="userSpaceOnUse">
<stop offset="0.1323" stop-color="#0064DF"/>
<stop offset="0.9988" stop-color="#0064E0"/>
</linearGradient>
<linearGradient id="paint2_linear_438_999" x1="18.1958" y1="24.9793" x2="19.7191" y2="21.1684" gradientUnits="userSpaceOnUse">
<stop offset="0.0147" stop-color="#0072EC"/>
<stop offset="0.6881" stop-color="#0064DF"/>
</linearGradient>
<linearGradient id="paint3_linear_438_999" x1="17.9908" y1="27.7368" x2="18.1673" y2="25.4055" gradientUnits="userSpaceOnUse">
<stop offset="0.0731" stop-color="#007CF6"/>
<stop offset="0.9943" stop-color="#0072EC"/>
</linearGradient>
<linearGradient id="paint4_linear_438_999" x1="18.0866" y1="29.0037" x2="17.9604" y2="28.0698" gradientUnits="userSpaceOnUse">
<stop offset="0.0731" stop-color="#007FF9"/>
<stop offset="1" stop-color="#007CF6"/>
</linearGradient>
<linearGradient id="paint5_linear_438_999" x1="18.0134" y1="29.2487" x2="18.7987" y2="30.9039" gradientUnits="userSpaceOnUse">
<stop offset="0.0731" stop-color="#007FF9"/>
<stop offset="1" stop-color="#0082FB"/>
</linearGradient>
<linearGradient id="paint6_linear_438_999" x1="29.9618" y1="21.2223" x2="30.9979" y2="19.7982" gradientUnits="userSpaceOnUse">
<stop offset="0.2799" stop-color="#007FF8"/>
<stop offset="0.9141" stop-color="#0082FB"/>
</linearGradient>
<linearGradient id="paint7_linear_438_999" x1="37.7761" y1="19.3672" x2="39.951" y2="27.3184" gradientUnits="userSpaceOnUse">
<stop stop-color="#0082FB"/>
<stop offset="0.9995" stop-color="#0081FA"/>
</linearGradient>
<linearGradient id="paint8_linear_438_999" x1="40.4419" y1="27.6294" x2="39.0676" y2="30.3893" gradientUnits="userSpaceOnUse">
<stop offset="0.0619" stop-color="#0081FA"/>
<stop offset="1" stop-color="#0080F9"/>
</linearGradient>
<linearGradient id="paint9_linear_438_999" x1="38.0018" y1="31.8641" x2="39.2787" y2="30.9998" gradientUnits="userSpaceOnUse">
<stop stop-color="#027AF3"/>
<stop offset="1" stop-color="#0080F9"/>
</linearGradient>
<linearGradient id="paint10_linear_438_999" x1="36.0069" y1="32.0341" x2="37.7743" y2="32.0341" gradientUnits="userSpaceOnUse">
<stop stop-color="#0377EF"/>
<stop offset="0.9994" stop-color="#0279F1"/>
</linearGradient>
<linearGradient id="paint11_linear_438_999" x1="34.4702" y1="31.0541" x2="35.7448" y2="31.7993" gradientUnits="userSpaceOnUse">
<stop offset="0.0019" stop-color="#0471E9"/>
<stop offset="1" stop-color="#0377EF"/>
</linearGradient>
<linearGradient id="paint12_linear_438_999" x1="30.5966" y1="25.5057" x2="34.698" y2="30.6303" gradientUnits="userSpaceOnUse">
<stop offset="0.2765" stop-color="#0867DF"/>
<stop offset="1" stop-color="#0471E9"/>
</linearGradient>
</defs>
</svg>
