<svg width="30" height="25" viewBox="0 0 30 25" fill="none" xmlns="http://www.w3.org/2000/svg"><path fill-rule="evenodd" clip-rule="evenodd" d="M29.5838 13.8048H30V11.9243H29.5863L29.5662 11.9193C29.4419 11.8875 29.318 11.8543 29.1945 11.8196C28.7369 11.6906 28.2829 11.5489 27.8331 11.3946C26.6941 11.006 25.169 10.4042 23.6126 9.55176C20.454 7.82172 17.4058 5.19656 16.856 1.43998L16.72 0.509766L14.8596 0.781809L14.9956 1.71202C15.677 6.37061 19.4022 9.39004 22.7094 11.2009C23.1908 11.4642 23.6684 11.7055 24.1329 11.9243L0 11.9243L0 13.8048L23.8828 13.8048C23.3442 14.0456 22.8134 14.3035 22.2913 14.5783C18.8751 16.3798 15.0326 19.4111 14.9856 24.0415L14.9762 24.9818L16.8567 25.0006L16.8661 24.0603C16.9012 20.5639 19.831 18.0014 23.1682 16.2419C24.7954 15.3831 26.4283 14.7663 27.6601 14.3633C28.2743 14.1627 28.7846 14.0154 29.1394 13.9201C29.2871 13.88 29.4352 13.8415 29.5838 13.8048Z" fill="#0e162a"/></svg>